<svg xmlns="http://www.w3.org/2000/svg" viewBox="0 0 1536 1024" role="img" width="1536" height="1024">
  <title>2011 French Open - Roland Garros Pixel Art Banner</title>
  <defs>
    <radialGradient id="crt" cx="50%" cy="50%" r="70%">
      <stop offset="0%" stop-color="#1a0a2e" />
      <stop offset="100%" stop-color="#0a0015" />
    </radialGradient>
    <pattern id="scanline" x="0" y="0" width="2" height="4" patternUnits="userSpaceOnUse">
      <rect width="2" height="2" fill="rgba(0,0,0,0.3)" />
    </pattern>
  </defs>

  
  <rect width="1536" height="1024" fill="url(#crt)" />
  
  <rect x="0" y="400" width="1536" height="624" fill="#8B2500" />
  
  <rect x="0" y="400" width="1536" height="16" fill="#a03000" />
  <rect x="0" y="416" width="1536" height="8" fill="#8B2500" />

  
  <rect width="1536" height="1024" fill="url(#scanline)" opacity="0.4" />

  
  <rect x="50" y="30" width="8" height="8" fill="#ffff00" />
  <rect x="150" y="80" width="8" height="8" fill="#ffffff" />
  <rect x="300" y="50" width="8" height="8" fill="#ffff00" />
  <rect x="500" y="20" width="8" height="8" fill="#ffffff" />
  <rect x="700" y="60" width="8" height="8" fill="#ffff00" />
  <rect x="900" y="30" width="8" height="8" fill="#ffffff" />
  <rect x="1100" y="70" width="8" height="8" fill="#ffff00" />
  <rect x="1300" y="40" width="8" height="8" fill="#ffffff" />
  <rect x="1450" y="90" width="8" height="8" fill="#ffff00" />
  <rect x="80" y="120" width="8" height="8" fill="#ffffff" />
  <rect x="250" y="160" width="8" height="8" fill="#ffff00" />
  <rect x="450" y="140" width="8" height="8" fill="#ffffff" />
  <rect x="650" y="100" width="8" height="8" fill="#ffff00" />
  <rect x="850" y="150" width="8" height="8" fill="#ffffff" />
  <rect x="1050" y="110" width="8" height="8" fill="#ffff00" />
  <rect x="1250" y="130" width="8" height="8" fill="#ffffff" />
  <rect x="1400" y="160" width="8" height="8" fill="#ffff00" />

  
  
  <rect x="60" y="260" width="16" height="140" fill="#44aaff" />
  <rect x="140" y="260" width="16" height="140" fill="#44aaff" />
  
  <rect x="60" y="340" width="96" height="16" fill="#44aaff" />
  
  <rect x="84" y="200" width="16" height="64" fill="#44aaff" />
  <rect x="116" y="200" width="16" height="64" fill="#44aaff" />
  <rect x="84" y="260" width="48" height="16" fill="#44aaff" />
  
  <rect x="100" y="140" width="16" height="64" fill="#44aaff" />
  
  <rect x="104" y="100" width="8" height="44" fill="#44aaff" />
  <rect x="106" y="80" width="4" height="24" fill="#44aaff" />
  
  <rect x="60" y="260" width="96" height="140" fill="#44aaff" opacity="0.1" />

  
  
  <rect x="300" y="440" width="936" height="520" fill="#9B3500" />
  
  <rect x="300" y="440" width="936" height="8" fill="#ffffff" />
  <rect x="300" y="952" width="936" height="8" fill="#ffffff" />
  
  <rect x="300" y="440" width="8" height="520" fill="#ffffff" />
  <rect x="1228" y="440" width="8" height="520" fill="#ffffff" />
  
  <rect x="300" y="690" width="936" height="8" fill="#ffffff" />
  
  <rect x="764" y="440" width="8" height="260" fill="#ffffff" />
  <rect x="764" y="698" width="8" height="260" fill="#ffffff" />
  
  <rect x="368" y="440" width="8" height="520" fill="#dddddd" opacity="0.6" />
  <rect x="1160" y="440" width="8" height="520" fill="#dddddd" opacity="0.6" />
  
  <rect x="300" y="690" width="936" height="4" fill="#ffffff" />
  <rect x="300" y="672" width="936" height="4" fill="#dddddd" />
  
  <rect x="284" y="648" width="24" height="56" fill="#888888" />
  <rect x="1228" y="648" width="24" height="56" fill="#888888" />
  
  <rect x="308" y="648" width="8" height="36" fill="#aaaaaa" opacity="0.5" />
  <rect x="348" y="648" width="8" height="36" fill="#aaaaaa" opacity="0.5" />
  <rect x="388" y="648" width="8" height="36" fill="#aaaaaa" opacity="0.5" />
  <rect x="428" y="648" width="8" height="36" fill="#aaaaaa" opacity="0.5" />
  <rect x="468" y="648" width="8" height="36" fill="#aaaaaa" opacity="0.5" />
  <rect x="508" y="648" width="8" height="36" fill="#aaaaaa" opacity="0.5" />
  <rect x="548" y="648" width="8" height="36" fill="#aaaaaa" opacity="0.5" />
  <rect x="588" y="648" width="8" height="36" fill="#aaaaaa" opacity="0.5" />
  <rect x="628" y="648" width="8" height="36" fill="#aaaaaa" opacity="0.5" />
  <rect x="668" y="648" width="8" height="36" fill="#aaaaaa" opacity="0.5" />
  <rect x="708" y="648" width="8" height="36" fill="#aaaaaa" opacity="0.5" />
  <rect x="748" y="648" width="8" height="36" fill="#aaaaaa" opacity="0.5" />
  <rect x="788" y="648" width="8" height="36" fill="#aaaaaa" opacity="0.5" />
  <rect x="828" y="648" width="8" height="36" fill="#aaaaaa" opacity="0.5" />
  <rect x="868" y="648" width="8" height="36" fill="#aaaaaa" opacity="0.5" />
  <rect x="908" y="648" width="8" height="36" fill="#aaaaaa" opacity="0.5" />
  <rect x="948" y="648" width="8" height="36" fill="#aaaaaa" opacity="0.5" />
  <rect x="988" y="648" width="8" height="36" fill="#aaaaaa" opacity="0.5" />
  <rect x="1028" y="648" width="8" height="36" fill="#aaaaaa" opacity="0.5" />
  <rect x="1068" y="648" width="8" height="36" fill="#aaaaaa" opacity="0.5" />
  <rect x="1108" y="648" width="8" height="36" fill="#aaaaaa" opacity="0.5" />
  <rect x="1148" y="648" width="8" height="36" fill="#aaaaaa" opacity="0.5" />
  <rect x="1188" y="648" width="8" height="36" fill="#aaaaaa" opacity="0.5" />
  <rect x="1220" y="648" width="8" height="36" fill="#aaaaaa" opacity="0.5" />

  
  
  <rect x="600" y="760" width="32" height="32" fill="#f4c88c" />
  
  <rect x="600" y="764" width="32" height="8" fill="#ff2200" />
  
  <rect x="592" y="792" width="48" height="48" fill="#ff6600" />
  
  <rect x="560" y="792" width="32" height="16" fill="#ff6600" />
  <rect x="640" y="792" width="32" height="16" fill="#ff6600" />
  
  <rect x="592" y="840" width="48" height="32" fill="#ff2200" />
  
  <rect x="592" y="872" width="16" height="32" fill="#f4c88c" />
  <rect x="624" y="872" width="16" height="32" fill="#f4c88c" />
  
  <rect x="584" y="904" width="24" height="12" fill="#ffffff" />
  <rect x="616" y="904" width="24" height="12" fill="#ffffff" />
  
  <rect x="528" y="776" width="16" height="48" fill="#888888" />
  <rect x="520" y="760" width="32" height="32" fill="none" stroke="#888888" stroke-width="4" />
  
  <rect x="524" y="764" width="4" height="24" fill="#cccccc" />
  <rect x="532" y="764" width="4" height="24" fill="#cccccc" />
  <rect x="540" y="764" width="4" height="24" fill="#cccccc" />
  <rect x="524" y="764" width="24" height="4" fill="#cccccc" />
  <rect x="524" y="772" width="24" height="4" fill="#cccccc" />
  <rect x="524" y="780" width="24" height="4" fill="#cccccc" />

  
  
  <rect x="904" y="560" width="32" height="32" fill="#f4c88c" />
  
  <rect x="904" y="560" width="32" height="8" fill="#8B4513" />
  
  <rect x="896" y="592" width="48" height="48" fill="#ffffff" />
  
  <rect x="908" y="600" width="8" height="8" fill="#ff0000" />
  <rect x="920" y="600" width="8" height="8" fill="#ffaa00" />
  
  <rect x="864" y="592" width="32" height="16" fill="#ffffff" />
  <rect x="944" y="592" width="32" height="16" fill="#ffffff" />
  
  <rect x="896" y="640" width="48" height="32" fill="#333333" />
  
  <rect x="896" y="672" width="16" height="32" fill="#f4c88c" />
  <rect x="928" y="672" width="16" height="32" fill="#f4c88c" />
  
  <rect x="888" y="704" width="24" height="12" fill="#ffffff" />
  <rect x="920" y="704" width="24" height="12" fill="#ffffff" />
  
  <rect x="960" y="576" width="16" height="48" fill="#888888" />
  <rect x="952" y="556" width="32" height="32" fill="none" stroke="#888888" stroke-width="4" />
  <rect x="956" y="560" width="4" height="24" fill="#cccccc" />
  <rect x="964" y="560" width="4" height="24" fill="#cccccc" />
  <rect x="972" y="560" width="4" height="24" fill="#cccccc" />
  <rect x="956" y="560" width="24" height="4" fill="#cccccc" />
  <rect x="956" y="568" width="24" height="4" fill="#cccccc" />
  <rect x="956" y="576" width="24" height="4" fill="#cccccc" />

  
  <rect x="768" y="620" width="24" height="24" fill="#ccff00" />
  <rect x="772" y="618" width="16" height="4" fill="#ccff00" />
  <rect x="772" y="642" width="16" height="4" fill="#ccff00" />
  <rect x="764" y="624" width="4" height="16" fill="#ccff00" />
  <rect x="788" y="624" width="4" height="16" fill="#ccff00" />
  
  <rect x="776" y="622" width="4" height="4" fill="#ffffff" opacity="0.6" />

  
  <rect x="1340" y="280" width="80" height="80" fill="#ffcc00" />
  
  <rect x="1348" y="296" width="64" height="56" fill="#ffaa00" />
  <rect x="1340" y="296" width="16" height="40" fill="#ffcc00" />
  <rect x="1404" y="296" width="16" height="40" fill="#ffcc00" />
  
  <rect x="1340" y="280" width="80" height="16" fill="#ffdd00" />
  
  <rect x="1368" y="360" width="24" height="40" fill="#ffcc00" />
  
  <rect x="1340" y="400" width="80" height="16" fill="#ffaa00" />
  <rect x="1332" y="416" width="96" height="16" fill="#ffcc00" />
  
  <rect x="1372" y="308" width="16" height="32" fill="#ffff00" />
  <rect x="1356" y="316" width="48" height="16" fill="#ffff00" />

  
  <rect x="1260" y="60" width="240" height="120" fill="#111133" />
  <rect x="1260" y="60" width="240" height="8" fill="#0055ff" />
  <rect x="1260" y="60" width="8" height="120" fill="#0055ff" />
  <rect x="1492" y="60" width="8" height="120" fill="#0055ff" />
  <rect x="1260" y="172" width="240" height="8" fill="#0055ff" />
  
  <text x="1268" y="108" font-family="monospace" font-size="20" fill="#00ff44" letter-spacing="2">NADAL</text>
  <text x="1268" y="132" font-family="monospace" font-size="20" fill="#ffcc00">FEDERER</text>
  <text x="1420" y="108" font-family="monospace" font-size="24" fill="#00ff44" font-weight="bold">W</text>
  <text x="1420" y="132" font-family="monospace" font-size="24" fill="#ff4444">L</text>

  
  <rect x="220" y="60" width="40" height="60" fill="#002395" />
  <rect x="260" y="60" width="40" height="60" fill="#ffffff" />
  <rect x="300" y="60" width="40" height="60" fill="#ED2939" />
  <rect x="216" y="56" width="4" height="68" fill="#888888" />

  
  <rect x="0" y="0" width="1536" height="200" fill="rgba(0,0,20,0.85)" />
  
  <rect x="0" y="196" width="1536" height="4" fill="#ff6600" />

  
  <text x="768" y="90" font-family="'Courier New', monospace" font-size="72" font-weight="bold" fill="#ffcc00" text-anchor="middle" letter-spacing="6">2011 FRENCH OPEN</text>
  
  <text x="768" y="155" font-family="'Courier New', monospace" font-size="32" fill="#ff6600" text-anchor="middle" letter-spacing="4">ROLAND GARROS · PARIS</text>
  
  <rect x="500" y="170" width="16" height="8" fill="#ff6600" />
  <rect x="524" y="170" width="16" height="8" fill="#ffcc00" />
  <rect x="548" y="170" width="16" height="8" fill="#ff6600" />
  <rect x="572" y="170" width="16" height="8" fill="#ffcc00" />
  <rect x="596" y="170" width="16" height="8" fill="#ff6600" />
  <rect x="620" y="170" width="16" height="8" fill="#ffcc00" />
  <rect x="644" y="170" width="16" height="8" fill="#ff6600" />
  <rect x="668" y="170" width="16" height="8" fill="#ffcc00" />
  <rect x="692" y="170" width="16" height="8" fill="#ff6600" />
  <rect x="716" y="170" width="16" height="8" fill="#ffcc00" />
  <rect x="740" y="170" width="16" height="8" fill="#ff6600" />
  <rect x="764" y="170" width="16" height="8" fill="#ffcc00" />
  <rect x="788" y="170" width="16" height="8" fill="#ff6600" />
  <rect x="812" y="170" width="16" height="8" fill="#ffcc00" />
  <rect x="836" y="170" width="16" height="8" fill="#ff6600" />
  <rect x="860" y="170" width="16" height="8" fill="#ffcc00" />
  <rect x="884" y="170" width="16" height="8" fill="#ff6600" />
  <rect x="908" y="170" width="16" height="8" fill="#ffcc00" />
  <rect x="932" y="170" width="16" height="8" fill="#ff6600" />
  <rect x="956" y="170" width="16" height="8" fill="#ffcc00" />
  <rect x="980" y="170" width="16" height="8" fill="#ff6600" />
  <rect x="1004" y="170" width="16" height="8" fill="#ffcc00" />

  
  <rect x="520" y="920" width="200" height="36" fill="rgba(0,0,0,0.8)" />
  <text x="620" y="945" font-family="'Courier New', monospace" font-size="22" fill="#ff6600" text-anchor="middle" font-weight="bold">NADAL</text>
  <rect x="820" y="720" width="220" height="36" fill="rgba(0,0,0,0.8)" />
  <text x="930" y="745" font-family="'Courier New', monospace" font-size="22" fill="#ffffff" text-anchor="middle" font-weight="bold">FEDERER</text>

  
  <rect x="0" y="970" width="1536" height="54" fill="rgba(0,0,0,0.9)" />
  <rect x="0" y="970" width="1536" height="4" fill="#ff6600" />
  <text x="60" y="1007" font-family="'Courier New', monospace" font-size="22" fill="#00ff88">▶ MAY 22 – JUNE 5, 2011</text>
  <text x="500" y="1007" font-family="'Courier New', monospace" font-size="22" fill="#ffcc00">▶ NADAL 6TH TITLE</text>
  <text x="900" y="1007" font-family="'Courier New', monospace" font-size="22" fill="#ff88ff">▶ LI NA: FIRST ASIAN GRAND SLAM</text>
  <text x="1380" y="1007" font-family="'Courier New', monospace" font-size="22" fill="#44aaff">110TH ED.</text>

  
  <rect width="1536" height="1024" fill="none" stroke="rgba(0,0,80,0.5)" stroke-width="60" />
</svg>