<svg xmlns="http://www.w3.org/2000/svg" viewBox="0 0 1536 1024" role="img" width="1536" height="1024">
  <title>Adele — 21 Album Review Banner, Retro Pixel Art Style</title>

  <defs>
    <radialGradient id="crt" cx="50%" cy="50%" r="70%">
      <stop offset="0%" stop-color="#1a0a2e" />
      <stop offset="100%" stop-color="#050008" />
    </radialGradient>
    <filter id="glow">
      <feGaussianBlur stdDeviation="3" result="blur" />
      <feMerge><feMergeNode in="blur" /><feMergeNode in="SourceGraphic" /></feMerge>
    </filter>
    
    <pattern id="scanlines" x="0" y="0" width="2" height="4" patternUnits="userSpaceOnUse">
      <rect width="2" height="2" fill="rgba(0,0,0,0.25)" />
    </pattern>
  </defs>

  
  <rect width="1536" height="1024" fill="url(#crt)" />

  
  <rect x="80" y="60" width="4" height="4" fill="#ffffff" opacity="0.8" />
  <rect x="200" y="120" width="4" height="4" fill="#ffff88" opacity="0.7" />
  <rect x="340" y="40" width="4" height="4" fill="#ffffff" opacity="0.6" />
  <rect x="500" y="90" width="4" height="4" fill="#88ffff" opacity="0.8" />
  <rect x="650" y="30" width="4" height="4" fill="#ffffff" opacity="0.5" />
  <rect x="820" y="70" width="4" height="4" fill="#ffff88" opacity="0.7" />
  <rect x="1000" y="45" width="4" height="4" fill="#ffffff" opacity="0.8" />
  <rect x="1180" y="100" width="4" height="4" fill="#88ffff" opacity="0.6" />
  <rect x="1350" y="55" width="4" height="4" fill="#ffffff" opacity="0.7" />
  <rect x="1450" y="130" width="4" height="4" fill="#ffff88" opacity="0.5" />
  <rect x="120" y="200" width="4" height="4" fill="#ff88ff" opacity="0.6" />
  <rect x="1480" y="200" width="4" height="4" fill="#ff88ff" opacity="0.6" />

  
  
  
  <rect x="80" y="220" width="40" height="40" fill="#ff4488" />
  <rect x="120" y="220" width="40" height="40" fill="#ff4488" />
  <rect x="160" y="220" width="40" height="40" fill="#ff4488" />
  <rect x="200" y="220" width="40" height="40" fill="#ff4488" />
  <rect x="240" y="220" width="40" height="40" fill="#ff4488" />
  
  <rect x="240" y="260" width="40" height="40" fill="#ff4488" />
  
  <rect x="240" y="300" width="40" height="40" fill="#ff4488" />
  
  <rect x="80" y="340" width="40" height="40" fill="#ff4488" />
  <rect x="120" y="340" width="40" height="40" fill="#ff4488" />
  <rect x="160" y="340" width="40" height="40" fill="#ff4488" />
  <rect x="200" y="340" width="40" height="40" fill="#ff4488" />
  <rect x="240" y="340" width="40" height="40" fill="#ff4488" />
  
  <rect x="80" y="380" width="40" height="40" fill="#ff4488" />
  
  <rect x="80" y="420" width="40" height="40" fill="#ff4488" />
  
  <rect x="80" y="460" width="40" height="40" fill="#ff4488" />
  <rect x="120" y="460" width="40" height="40" fill="#ff4488" />
  <rect x="160" y="460" width="40" height="40" fill="#ff4488" />
  <rect x="200" y="460" width="40" height="40" fill="#ff4488" />
  <rect x="240" y="460" width="40" height="40" fill="#ff4488" />

  
  
  <rect x="340" y="220" width="40" height="40" fill="#ff4488" />
  <rect x="380" y="220" width="40" height="40" fill="#ff4488" />
  
  <rect x="380" y="260" width="40" height="40" fill="#ff4488" />
  <rect x="380" y="300" width="40" height="40" fill="#ff4488" />
  <rect x="380" y="340" width="40" height="40" fill="#ff4488" />
  <rect x="380" y="380" width="40" height="40" fill="#ff4488" />
  <rect x="380" y="420" width="40" height="40" fill="#ff4488" />
  
  <rect x="340" y="460" width="40" height="40" fill="#ff4488" />
  <rect x="380" y="460" width="40" height="40" fill="#ff4488" />
  <rect x="420" y="460" width="40" height="40" fill="#ff4488" />

  
  <rect x="60" y="200" width="420" height="300" fill="#ff4488" opacity="0.08" rx="0" />

  
  
  <rect x="700" y="160" width="16" height="16" fill="#cc88ff" />
  <rect x="716" y="160" width="16" height="16" fill="#cc88ff" />
  <rect x="732" y="160" width="16" height="16" fill="#cc88ff" />
  <rect x="748" y="160" width="16" height="16" fill="#cc88ff" />
  <rect x="684" y="176" width="16" height="16" fill="#cc88ff" />
  <rect x="700" y="176" width="16" height="16" fill="#dd99ff" />
  <rect x="716" y="176" width="16" height="16" fill="#dd99ff" />
  <rect x="732" y="176" width="16" height="16" fill="#dd99ff" />
  <rect x="748" y="176" width="16" height="16" fill="#dd99ff" />
  <rect x="764" y="176" width="16" height="16" fill="#cc88ff" />
  <rect x="684" y="192" width="16" height="16" fill="#cc88ff" />
  <rect x="700" y="192" width="16" height="16" fill="#dd99ff" />
  <rect x="716" y="192" width="16" height="16" fill="#eebbff" />
  <rect x="732" y="192" width="16" height="16" fill="#dd99ff" />
  <rect x="748" y="192" width="16" height="16" fill="#dd99ff" />
  <rect x="764" y="192" width="16" height="16" fill="#cc88ff" />
  <rect x="684" y="208" width="16" height="16" fill="#cc88ff" />
  <rect x="700" y="208" width="16" height="16" fill="#dd99ff" />
  <rect x="716" y="208" width="16" height="16" fill="#dd99ff" />
  <rect x="732" y="208" width="16" height="16" fill="#dd99ff" />
  <rect x="748" y="208" width="16" height="16" fill="#dd99ff" />
  <rect x="764" y="208" width="16" height="16" fill="#cc88ff" />
  <rect x="700" y="224" width="16" height="16" fill="#cc88ff" />
  <rect x="716" y="224" width="16" height="16" fill="#cc88ff" />
  <rect x="732" y="224" width="16" height="16" fill="#cc88ff" />
  <rect x="748" y="224" width="16" height="16" fill="#cc88ff" />
  
  <rect x="716" y="240" width="16" height="16" fill="#aa66dd" />
  <rect x="716" y="256" width="16" height="16" fill="#aa66dd" />
  <rect x="716" y="272" width="16" height="16" fill="#aa66dd" />
  <rect x="716" y="288" width="16" height="16" fill="#aa66dd" />
  
  <rect x="684" y="304" width="16" height="16" fill="#aa66dd" />
  <rect x="700" y="304" width="16" height="16" fill="#aa66dd" />
  <rect x="716" y="304" width="16" height="16" fill="#aa66dd" />
  <rect x="732" y="304" width="16" height="16" fill="#aa66dd" />
  <rect x="748" y="304" width="16" height="16" fill="#aa66dd" />

  
  
  <rect x="860" y="200" width="20" height="20" fill="#ff2255" />
  <rect x="880" y="180" width="20" height="20" fill="#ff2255" />
  <rect x="900" y="180" width="20" height="20" fill="#ff2255" />
  <rect x="860" y="220" width="20" height="20" fill="#ff2255" />
  <rect x="880" y="220" width="20" height="20" fill="#ff2255" />
  <rect x="860" y="240" width="20" height="20" fill="#ff2255" />
  <rect x="880" y="240" width="20" height="20" fill="#ff4466" opacity="0.6" />
  <rect x="840" y="200" width="20" height="20" fill="#ff2255" />
  <rect x="840" y="220" width="20" height="20" fill="#ff2255" />
  <rect x="860" y="260" width="20" height="20" fill="#ff2255" />
  <rect x="880" y="260" width="20" height="20" fill="#ff2255" opacity="0.7" />
  
  <rect x="900" y="200" width="20" height="20" fill="#1a0a2e" />
  <rect x="900" y="220" width="20" height="20" fill="#1a0a2e" />
  <rect x="900" y="240" width="20" height="20" fill="#1a0a2e" />
  
  <rect x="920" y="200" width="20" height="20" fill="#cc1144" />
  <rect x="940" y="180" width="20" height="20" fill="#cc1144" />
  <rect x="920" y="180" width="20" height="20" fill="#cc1144" />
  <rect x="920" y="220" width="20" height="20" fill="#cc1144" />
  <rect x="940" y="220" width="20" height="20" fill="#cc1144" />
  <rect x="940" y="240" width="20" height="20" fill="#cc1144" />
  <rect x="920" y="240" width="20" height="20" fill="#cc1144" />
  <rect x="960" y="200" width="20" height="20" fill="#cc1144" />
  <rect x="960" y="220" width="20" height="20" fill="#cc1144" />
  <rect x="940" y="260" width="20" height="20" fill="#cc1144" />
  <rect x="920" y="260" width="20" height="20" fill="#cc1144" opacity="0.7" />
  
  <rect x="860" y="280" width="20" height="20" fill="#ff2255" opacity="0.5" />
  <rect x="880" y="280" width="20" height="20" fill="#ff2255" opacity="0.4" />
  <rect x="940" y="280" width="20" height="20" fill="#cc1144" opacity="0.4" />
  <rect x="920" y="280" width="20" height="20" fill="#cc1144" opacity="0.5" />

  
  
  <rect x="1200" y="400" width="24" height="24" fill="#ff8800" />
  <rect x="1224" y="376" width="24" height="24" fill="#ff8800" />
  <rect x="1248" y="352" width="24" height="24" fill="#ffaa00" />
  <rect x="1224" y="328" width="24" height="24" fill="#ffdd00" />
  <rect x="1200" y="352" width="24" height="24" fill="#ff6600" />
  <rect x="1200" y="376" width="24" height="24" fill="#ff4400" />
  <rect x="1224" y="400" width="24" height="24" fill="#ff6600" />
  <rect x="1248" y="376" width="24" height="24" fill="#ffcc00" />
  <rect x="1248" y="400" width="24" height="24" fill="#ff8800" />
  <rect x="1272" y="376" width="24" height="24" fill="#ff6600" />
  <rect x="1272" y="400" width="24" height="24" fill="#ff4400" />
  <rect x="1248" y="424" width="24" height="24" fill="#ff2200" />
  <rect x="1224" y="424" width="24" height="24" fill="#ff4400" />
  <rect x="1200" y="424" width="24" height="24" fill="#cc2200" />
  <rect x="1272" y="424" width="24" height="24" fill="#cc2200" />

  
  <rect x="1320" y="440" width="24" height="24" fill="#ff8800" />
  <rect x="1344" y="416" width="24" height="24" fill="#ffaa00" />
  <rect x="1320" y="416" width="24" height="24" fill="#ff6600" />
  <rect x="1344" y="440" width="24" height="24" fill="#ff6600" />
  <rect x="1320" y="464" width="24" height="24" fill="#cc2200" />
  <rect x="1344" y="464" width="24" height="24" fill="#cc2200" />

  
  <rect x="1100" y="300" width="8" height="20" fill="#44aaff" />
  <rect x="1130" y="340" width="8" height="20" fill="#44aaff" />
  <rect x="1160" y="280" width="8" height="20" fill="#44aaff" />
  <rect x="1090" y="360" width="8" height="20" fill="#66bbff" />
  <rect x="1140" y="300" width="8" height="20" fill="#66bbff" />
  <rect x="1170" y="340" width="8" height="20" fill="#44aaff" />
  <rect x="1110" y="320" width="8" height="20" fill="#44aaff" />

  
  
  <rect x="550" y="700" width="44" height="160" fill="#f0f0f0" rx="0" />
  <rect x="600" y="700" width="44" height="160" fill="#f0f0f0" />
  <rect x="650" y="700" width="44" height="160" fill="#f0f0f0" />
  <rect x="700" y="700" width="44" height="160" fill="#f0f0f0" />
  <rect x="750" y="700" width="44" height="160" fill="#f0f0f0" />
  <rect x="800" y="700" width="44" height="160" fill="#f0f0f0" />
  <rect x="850" y="700" width="44" height="160" fill="#f0f0f0" />
  <rect x="900" y="700" width="44" height="160" fill="#f0f0f0" />
  <rect x="950" y="700" width="44" height="160" fill="#f0f0f0" />
  <rect x="1000" y="700" width="44" height="160" fill="#f0f0f0" />
  
  <rect x="548" y="698" width="2" height="164" fill="#333" />
  <rect x="598" y="698" width="2" height="164" fill="#333" />
  <rect x="648" y="698" width="2" height="164" fill="#333" />
  <rect x="698" y="698" width="2" height="164" fill="#333" />
  <rect x="748" y="698" width="2" height="164" fill="#333" />
  <rect x="798" y="698" width="2" height="164" fill="#333" />
  <rect x="848" y="698" width="2" height="164" fill="#333" />
  <rect x="898" y="698" width="2" height="164" fill="#333" />
  <rect x="948" y="698" width="2" height="164" fill="#333" />
  <rect x="998" y="698" width="2" height="164" fill="#333" />
  <rect x="1044" y="698" width="2" height="164" fill="#333" />
  
  <rect x="570" y="700" width="30" height="100" fill="#111" />
  <rect x="670" y="700" width="30" height="100" fill="#111" />
  <rect x="770" y="700" width="30" height="100" fill="#111" />
  <rect x="820" y="700" width="30" height="100" fill="#111" />
  <rect x="920" y="700" width="30" height="100" fill="#111" />
  <rect x="970" y="700" width="30" height="100" fill="#111" />
  
  <rect x="770" y="700" width="30" height="100" fill="#ff4488" opacity="0.6" />

  
  
  <rect x="480" y="550" width="12" height="12" fill="#ffdd00" />
  <rect x="492" y="530" width="8" height="20" fill="#ffdd00" />
  <rect x="492" y="530" width="24" height="8" fill="#ffdd00" />
  
  <rect x="1100" y="560" width="12" height="12" fill="#88ffdd" />
  <rect x="1112" y="540" width="8" height="20" fill="#88ffdd" />
  <rect x="1112" y="540" width="24" height="8" fill="#88ffdd" />
  
  <rect x="1420" y="300" width="12" height="12" fill="#ffdd00" />
  <rect x="1432" y="280" width="8" height="20" fill="#ffdd00" />
  <rect x="1432" y="280" width="24" height="8" fill="#ffdd00" />

  
  
  <rect x="1380" y="550" width="16" height="16" fill="#9933cc" />
  <rect x="1396" y="534" width="48" height="16" fill="#9933cc" />
  <rect x="1444" y="550" width="16" height="16" fill="#9933cc" />
  <rect x="1460" y="566" width="16" height="48" fill="#9933cc" />
  <rect x="1444" y="614" width="16" height="16" fill="#9933cc" />
  <rect x="1396" y="630" width="48" height="16" fill="#9933cc" />
  <rect x="1380" y="614" width="16" height="16" fill="#9933cc" />
  <rect x="1364" y="566" width="16" height="48" fill="#9933cc" />
  
  <rect x="1396" y="550" width="48" height="80" fill="#220044" />
  <rect x="1380" y="566" width="80" height="48" fill="#220044" />
  
  <rect x="1404" y="558" width="32" height="64" fill="#330055" />
  <rect x="1388" y="574" width="64" height="32" fill="#330055" />
  
  <rect x="1412" y="574" width="16" height="16" fill="#ff4488" />
  <rect x="1416" y="578" width="8" height="8" fill="#ffaacc" />

  
  <rect x="0" y="0" width="60" height="16" fill="#cc88ff" opacity="0.4" />
  <rect x="0" y="0" width="16" height="60" fill="#cc88ff" opacity="0.4" />
  <rect x="1476" y="0" width="60" height="16" fill="#cc88ff" opacity="0.4" />
  <rect x="1520" y="0" width="16" height="60" fill="#cc88ff" opacity="0.4" />
  <rect x="0" y="1008" width="60" height="16" fill="#cc88ff" opacity="0.4" />
  <rect x="0" y="964" width="16" height="60" fill="#cc88ff" opacity="0.4" />
  <rect x="1476" y="1008" width="60" height="16" fill="#cc88ff" opacity="0.4" />
  <rect x="1520" y="964" width="16" height="60" fill="#cc88ff" opacity="0.4" />

  
  <rect x="0" y="680" width="1536" height="8" fill="#ff4488" opacity="0.3" />
  <rect x="0" y="688" width="1536" height="4" fill="#cc88ff" opacity="0.2" />

  
  <rect x="0" y="120" width="1536" height="8" fill="#ff4488" opacity="0.2" />

  
  
  <text x="768" y="600" font-family="'Courier New', Courier, monospace" font-size="120" font-weight="900" text-anchor="middle" fill="#ff4488" filter="url(#glow)" letter-spacing="20">ADELE</text>

  
  <text x="768" y="690" font-family="'Courier New', Courier, monospace" font-size="80" font-weight="900" text-anchor="middle" fill="#cc88ff" filter="url(#glow)" letter-spacing="30">— 21 —</text>

  
  <text x="768" y="980" font-family="'Courier New', Courier, monospace" font-size="28" font-weight="700" text-anchor="middle" fill="#88ffdd" letter-spacing="8" opacity="0.9">ROLLING IN THE DEEP  ♦  SOMEONE LIKE YOU</text>

  
  <text x="768" y="90" font-family="'Courier New', Courier, monospace" font-size="22" font-weight="700" text-anchor="middle" fill="#ffdd00" letter-spacing="6" opacity="0.85">★ ALBUM REVIEW ★  2011  ★ XL RECORDINGS ★</text>

  
  <rect width="1536" height="1024" fill="url(#scanlines)" opacity="0.4" />

  
  <rect width="1536" height="1024" fill="url(#crt)" opacity="0.3" />
</svg>