<svg xmlns="http://www.w3.org/2000/svg" viewBox="0 0 1536 1024" role="img" width="1536" height="1024">
  <title>Death of R. Sargent Shriver — Retro Pixel Art Banner</title>
  <defs>
    <radialGradient id="crt" cx="50%" cy="50%" r="70%">
      <stop offset="0%" stop-color="#1a0a2e" />
      <stop offset="100%" stop-color="#050010" />
    </radialGradient>
    <filter id="glow">
      <feGaussianBlur stdDeviation="3" result="blur" />
      <feMerge><feMergeNode in="blur" /><feMergeNode in="SourceGraphic" /></feMerge>
    </filter>
    <pattern id="scanlines" x="0" y="0" width="2" height="4" patternUnits="userSpaceOnUse">
      <rect x="0" y="0" width="2" height="2" fill="rgba(0,0,0,0.18)" />
    </pattern>
  </defs>

  
  <rect width="1536" height="1024" fill="url(#crt)" />

  
  <g fill="#ffffff" opacity="0.5">
    <rect x="80" y="60" width="4" height="4" />
    <rect x="200" y="120" width="4" height="4" />
    <rect x="350" y="40" width="4" height="4" />
    <rect x="500" y="90" width="4" height="4" />
    <rect x="700" y="30" width="4" height="4" />
    <rect x="900" y="80" width="4" height="4" />
    <rect x="1100" y="50" width="4" height="4" />
    <rect x="1300" y="100" width="4" height="4" />
    <rect x="1450" y="40" width="4" height="4" />
    <rect x="140" y="900" width="4" height="4" />
    <rect x="400" y="950" width="4" height="4" />
    <rect x="620" y="980" width="4" height="4" />
    <rect x="1200" y="920" width="4" height="4" />
    <rect x="1400" y="960" width="4" height="4" />
    <rect x="60" y="400" width="4" height="4" />
    <rect x="1480" y="500" width="4" height="4" />
  </g>

  
  
  <g transform="translate(280, 512)" filter="url(#glow)">
    
    <polygon points="0,-180 60,-168 116,-132 152,-80 164,-16 152,52 116,108 60,144 0,156 -60,144 -116,108 -152,52 -164,-16 -152,-80 -116,-132 -60,-168" fill="#0d3b6e" stroke="#00e5ff" stroke-width="6" />
    
    <line x1="-164" y1="-16" x2="164" y2="-16" stroke="#00e5ff" stroke-width="4" opacity="0.5" />
    <line x1="-152" y1="-80" x2="152" y2="-80" stroke="#00e5ff" stroke-width="3" opacity="0.4" />
    <line x1="-152" y1="52" x2="152" y2="52" stroke="#00e5ff" stroke-width="3" opacity="0.4" />
    
    <line x1="0" y1="-180" x2="0" y2="156" stroke="#00e5ff" stroke-width="4" opacity="0.5" />
    <line x1="-80" y1="-168" x2="-60" y2="144" stroke="#00e5ff" stroke-width="3" opacity="0.35" />
    <line x1="80" y1="-168" x2="60" y2="144" stroke="#00e5ff" stroke-width="3" opacity="0.35" />
    
    <rect x="-60" y="-100" width="80" height="60" rx="0" fill="#00cc44" opacity="0.9" />
    <rect x="-40" y="-44" width="56" height="40" rx="0" fill="#00cc44" opacity="0.9" />
    <rect x="20" y="-80" width="60" height="48" rx="0" fill="#00cc44" opacity="0.8" />
    <rect x="-120" y="0" width="48" height="36" rx="0" fill="#00cc44" opacity="0.75" />
    <rect x="60" y="20" width="52" height="44" rx="0" fill="#00cc44" opacity="0.8" />
    
    <text x="0" y="220" text-anchor="middle" font-family="monospace" font-size="28" fill="#00e5ff" font-weight="bold" letter-spacing="2">PEACE CORPS</text>
    <text x="0" y="256" text-anchor="middle" font-family="monospace" font-size="20" fill="#00e5ff" opacity="0.7">EST. 1961</text>
  </g>

  
  <g transform="translate(640, 340)" filter="url(#glow)">
    
    <rect x="-28" y="0" width="56" height="56" fill="#f4c97a" />
    
    <rect x="-16" y="16" width="10" height="10" fill="#1a0a2e" />
    <rect x="6" y="16" width="10" height="10" fill="#1a0a2e" />
    
    <rect x="-12" y="36" width="24" height="8" fill="#c0704a" />
    
    <rect x="-12" y="56" width="24" height="16" fill="#f4c97a" />
    
    <rect x="-48" y="72" width="96" height="120" fill="#2a2a5a" />
    
    <rect x="-12" y="72" width="24" height="80" fill="#f0f0f0" />
    <rect x="-6" y="80" width="12" height="60" fill="#cc2200" />
    
    <rect x="-80" y="72" width="32" height="100" fill="#2a2a5a" />
    <rect x="48" y="72" width="32" height="100" fill="#2a2a5a" />
    
    <rect x="-84" y="172" width="28" height="24" fill="#f4c97a" />
    <rect x="56" y="172" width="28" height="24" fill="#f4c97a" />
    
    <rect x="-44" y="192" width="36" height="100" fill="#1a1a3a" />
    <rect x="8" y="192" width="36" height="100" fill="#1a1a3a" />
    
    <rect x="-48" y="292" width="44" height="20" fill="#111" />
    <rect x="4" y="292" width="44" height="20" fill="#111" />
    
    <polygon points="0,-8 3,-3 8,-3 4,1 6,7 0,3 -6,7 -4,1 -8,-3 -3,-3" fill="#ffd700" transform="translate(20,90)" />
  </g>

  
  <g transform="translate(1050, 300)" filter="url(#glow)" opacity="0.9">
    
    <rect x="0" y="20" width="80" height="48" fill="#e8e8ff" />
    <rect x="16" y="8" width="48" height="24" fill="#e8e8ff" />
    <rect x="24" y="0" width="32" height="16" fill="#e8e8ff" />
    
    <rect x="64" y="12" width="28" height="28" fill="#e8e8ff" />
    <rect x="88" y="20" width="16" height="8" fill="#ffaa00" />
    
    <rect x="72" y="16" width="8" height="8" fill="#ff4444" />
    
    <rect x="-32" y="0" width="48" height="20" fill="#c8c8ee" />
    <rect x="-48" y="16" width="56" height="16" fill="#c8c8ee" />
    <rect x="-32" y="28" width="36" height="12" fill="#c8c8ee" />
    
    <rect x="-16" y="44" width="24" height="36" fill="#c8c8ee" />
    <rect x="-32" y="52" width="16" height="28" fill="#c8c8ee" />
    
    <rect x="80" y="36" width="8" height="24" fill="#00aa44" />
    <rect x="88" y="28" width="8" height="8" fill="#00cc44" />
    <rect x="96" y="32" width="8" height="8" fill="#00cc44" />
    <rect x="88" y="44" width="8" height="8" fill="#00cc44" />
  </g>

  
  <g fill="#ffd700" opacity="0.8" filter="url(#glow)">
    <rect x="1380" y="80" width="12" height="12" />
    <rect x="1408" y="80" width="12" height="12" />
    <rect x="1436" y="80" width="12" height="12" />
    <rect x="1394" y="108" width="12" height="12" />
    <rect x="1422" y="108" width="12" height="12" />
    <rect x="1380" y="136" width="12" height="12" />
    <rect x="1408" y="136" width="12" height="12" />
    <rect x="1436" y="136" width="12" height="12" />
  </g>

  
  <g opacity="0.35">
    <rect x="1150" y="0" width="386" height="20" fill="#cc2200" />
    <rect x="1150" y="40" width="386" height="20" fill="#cc2200" />
    <rect x="1150" y="80" width="386" height="20" fill="#cc2200" />  
    <rect x="1150" y="120" width="386" height="20" fill="#cc2200" />
    <rect x="1150" y="160" width="386" height="20" fill="#cc2200" />
  </g>

  
  <g transform="translate(1200, 580)" filter="url(#glow)">
    
    <rect x="-20" y="60" width="120" height="20" fill="#f4c97a" />
    <rect x="-20" y="40" width="20" height="24" fill="#f4c97a" />
    <rect x="8" y="28" width="20" height="36" fill="#f4c97a" />
    <rect x="36" y="20" width="20" height="44" fill="#f4c97a" />
    <rect x="64" y="28" width="20" height="36" fill="#f4c97a" />
    <rect x="92" y="40" width="20" height="24" fill="#f4c97a" />
    
    <circle cx="40" cy="-20" r="52" fill="#ffd700" opacity="0" />
    <polygon points="40,-70 58,-50 76,-28 76,4 58,26 40,36 22,26 4,4 4,-28 22,-50" fill="#ffd700" />
    <polygon points="40,-52 52,-36 64,-20 64,0 52,16 40,24 28,16 16,0 16,-20 28,-36" fill="#e6a800" />
    <text x="40" y="6" text-anchor="middle" font-family="monospace" font-size="28" fill="#1a0a2e" font-weight="bold">$</text>
    <text x="40" y="110" text-anchor="middle" font-family="monospace" font-size="20" fill="#ffd700">WAR ON POVERTY</text>
  </g>

  
  <g transform="translate(820, 760)" opacity="0.85">
    <rect x="0" y="0" width="200" height="40" fill="#cc2200" />
    <text x="100" y="28" text-anchor="middle" font-family="monospace" font-size="22" fill="#fff" font-weight="bold">HEAD START</text>
    <rect x="208" y="0" width="160" height="40" fill="#0044cc" />
    <text x="288" y="28" text-anchor="middle" font-family="monospace" font-size="22" fill="#fff" font-weight="bold">JOB CORPS</text>
    <rect x="376" y="0" width="140" height="40" fill="#007700" />
    <text x="446" y="28" text-anchor="middle" font-family="monospace" font-size="22" fill="#fff" font-weight="bold">VISTA</text>
  </g>

  
  <g transform="translate(1380, 680)" opacity="0.7">
    <rect x="-8" y="-80" width="16" height="120" fill="#aaaacc" />
    <rect x="-44" y="-60" width="88" height="16" fill="#aaaacc" />
    
    <rect x="-28" y="40" width="56" height="16" fill="#aaaacc" />
    <rect x="-16" y="52" width="32" height="12" fill="#aaaacc" />
  </g>

  
  <g filter="url(#glow)">
    <text x="1380" y="780" text-anchor="middle" font-family="monospace" font-size="22" fill="#aaaaff" font-weight="bold">1915 — 2011</text>
    <text x="1380" y="810" text-anchor="middle" font-family="monospace" font-size="16" fill="#8888bb">AGE 95</text>
  </g>

  
  <rect x="24" y="24" width="1488" height="976" fill="none" stroke="#00e5ff" stroke-width="8" opacity="0.3" />
  <rect x="40" y="40" width="1456" height="944" fill="none" stroke="#00e5ff" stroke-width="4" opacity="0.15" />

  
  <g fill="#00e5ff" opacity="0.5">
    <rect x="24" y="24" width="40" height="8" />
    <rect x="24" y="24" width="8" height="40" />
    <rect x="1472" y="24" width="40" height="8" />
    <rect x="1504" y="24" width="8" height="40" />
    <rect x="24" y="992" width="40" height="8" />
    <rect x="24" y="960" width="8" height="40" />
    <rect x="1472" y="992" width="40" height="8" />
    <rect x="1504" y="960" width="8" height="40" />
  </g>

  
  <rect width="1536" height="1024" fill="url(#scanlines)" opacity="0.4" />

  
  <g filter="url(#glow)">
    
    <text x="772" y="160" text-anchor="middle" font-family="monospace" font-size="72" font-weight="bold" fill="#000044" letter-spacing="4">DEATH OF</text>
    <text x="772" y="248" text-anchor="middle" font-family="monospace" font-size="72" font-weight="bold" fill="#000044" letter-spacing="4">R. SARGENT SHRIVER</text>
    
    <text x="768" y="156" text-anchor="middle" font-family="monospace" font-size="72" font-weight="bold" fill="#ffffff" letter-spacing="4">DEATH OF</text>
    <text x="768" y="244" text-anchor="middle" font-family="monospace" font-size="72" font-weight="bold" fill="#ffd700" letter-spacing="4">R. SARGENT SHRIVER</text>
  </g>

  
  <text x="768" y="300" text-anchor="middle" font-family="monospace" font-size="28" fill="#00e5ff" letter-spacing="3" opacity="0.9">PEACE CORPS FOUNDER  ·  JANUARY 18, 2011</text>

  
  <g fill="#ffd700" opacity="0.6">
    <rect x="200" y="320" width="16" height="8" />
    <rect x="228" y="320" width="16" height="8" />
    <rect x="256" y="320" width="880" height="8" />
    <rect x="1148" y="320" width="16" height="8" />
    <rect x="1176" y="320" width="16" height="8" />
  </g>

  
  <text x="768" y="920" text-anchor="middle" font-family="monospace" font-size="24" fill="#aaddff" opacity="0.75" letter-spacing="2">"THE BEST INVESTMENT IS IN THE POOR"</text>

  
  <text x="768" y="975" text-anchor="middle" font-family="monospace" font-size="20" fill="#ffffff" opacity="0.5" letter-spacing="4">[ BETHESDA, MARYLAND · SUBURBAN HOSPITAL ]</text>

</svg>