<svg xmlns="http://www.w3.org/2000/svg" viewBox="0 0 1536 1024" role="img" width="1536" height="1024">
  <title>Harry Potter and the Deathly Hallows – Part 2 – Retro Pixel Art Banner</title>

  <defs>
    
    <pattern id="scanlines" x="0" y="0" width="4" height="4" patternUnits="userSpaceOnUse">
      <rect x="0" y="0" width="4" height="2" fill="black" opacity="0.18" />
    </pattern>
    
    <radialGradient id="vignette" cx="50%" cy="50%" r="70%">
      <stop offset="0%" stop-color="transparent" />
      <stop offset="100%" stop-color="#000000" stop-opacity="0.7" />
    </radialGradient>
    
    <filter id="glow" x="-30%" y="-30%" width="160%" height="160%">
      <feGaussianBlur stdDeviation="6" result="blur" />
      <feMerge><feMergeNode in="blur" /><feMergeNode in="SourceGraphic" /></feMerge>
    </filter>
    <filter id="glowGreen" x="-40%" y="-40%" width="180%" height="180%">
      <feGaussianBlur stdDeviation="10" result="blur" />
      <feMerge><feMergeNode in="blur" /><feMergeNode in="SourceGraphic" /></feMerge>
    </filter>
    <filter id="glowGold" x="-40%" y="-40%" width="180%" height="180%">
      <feGaussianBlur stdDeviation="8" result="blur" />
      <feMerge><feMergeNode in="blur" /><feMergeNode in="SourceGraphic" /></feMerge>
    </filter>
    
    <linearGradient id="skyGrad" x1="0" y1="0" x2="0" y2="1">
      <stop offset="0%" stop-color="#0a0010" />
      <stop offset="40%" stop-color="#1a0035" />
      <stop offset="100%" stop-color="#2d0050" />
    </linearGradient>
    
    <linearGradient id="groundGrad" x1="0" y1="0" x2="0" y2="1">
      <stop offset="0%" stop-color="#1a0035" />
      <stop offset="100%" stop-color="#0a0020" />
    </linearGradient>
    
    <linearGradient id="goldGrad" x1="0" y1="0" x2="0" y2="1">
      <stop offset="0%" stop-color="#ffe066" />
      <stop offset="50%" stop-color="#ffd700" />
      <stop offset="100%" stop-color="#c8a000" />
    </linearGradient>
  </defs>

  
  <rect width="1536" height="1024" fill="url(#skyGrad)" />

  
  <g fill="#ffffff" opacity="0.9">
    <rect x="50" y="30" width="4" height="4" /><rect x="120" y="80" width="4" height="4" />
    <rect x="200" y="20" width="4" height="4" /><rect x="300" y="60" width="4" height="4" />
    <rect x="400" y="15" width="4" height="4" /><rect x="500" y="50" width="4" height="4" />
    <rect x="600" y="25" width="4" height="4" /><rect x="700" y="70" width="4" height="4" />
    <rect x="800" y="10" width="4" height="4" /><rect x="900" y="55" width="4" height="4" />
    <rect x="1000" y="30" width="4" height="4" /><rect x="1100" y="80" width="4" height="4" />
    <rect x="1200" y="20" width="4" height="4" /><rect x="1300" y="45" width="4" height="4" />
    <rect x="1400" y="70" width="4" height="4" /><rect x="1480" y="25" width="4" height="4" />
    <rect x="80" y="150" width="4" height="4" /><rect x="180" y="120" width="4" height="4" />
    <rect x="280" y="140" width="4" height="4" /><rect x="380" y="100" width="4" height="4" />
    <rect x="480" y="130" width="4" height="4" /><rect x="580" y="110" width="4" height="4" />
    <rect x="680" y="140" width="4" height="4" /><rect x="780" y="90" width="4" height="4" />
    <rect x="880" y="130" width="4" height="4" /><rect x="980" y="110" width="4" height="4" />
    <rect x="1080" y="150" width="4" height="4" /><rect x="1180" y="100" width="4" height="4" />
    <rect x="1280" y="120" width="4" height="4" /><rect x="1380" y="140" width="4" height="4" />
    <rect x="1460" y="110" width="4" height="4" />
    <rect x="150" y="200" width="4" height="4" /><rect x="350" y="180" width="4" height="4" />
    <rect x="750" y="200" width="4" height="4" /><rect x="950" y="170" width="4" height="4" />
    <rect x="1150" y="195" width="4" height="4" /><rect x="1350" y="185" width="4" height="4" />
  </g>
  
  <g fill="#ffffaa" opacity="1">
    <rect x="160" y="45" width="6" height="6" /><rect x="450" y="35" width="6" height="6" />
    <rect x="860" y="50" width="6" height="6" /><rect x="1250" y="35" width="6" height="6" />
    <rect x="1050" y="160" width="6" height="6" />
  </g>

  
  <g fill="#ddeeff" opacity="0.85">
    <rect x="1380" y="50" width="8" height="8" />
    <rect x="1372" y="58" width="8" height="8" />
    <rect x="1388" y="58" width="8" height="8" />
    <rect x="1364" y="66" width="8" height="8" />
    <rect x="1372" y="66" width="8" height="8" />
    <rect x="1380" y="66" width="8" height="8" />
    <rect x="1388" y="66" width="8" height="8" />
    <rect x="1396" y="66" width="8" height="8" />
    <rect x="1364" y="74" width="8" height="8" />
    <rect x="1372" y="74" width="8" height="8" />
    <rect x="1380" y="74" width="8" height="8" />
    <rect x="1388" y="74" width="8" height="8" />
    <rect x="1396" y="74" width="8" height="8" />
    <rect x="1364" y="82" width="8" height="8" />
    <rect x="1372" y="82" width="8" height="8" />
    <rect x="1380" y="82" width="8" height="8" />
    <rect x="1388" y="82" width="8" height="8" />
    <rect x="1396" y="82" width="8" height="8" />
    <rect x="1372" y="90" width="8" height="8" />
    <rect x="1380" y="90" width="8" height="8" />
    <rect x="1388" y="90" width="8" height="8" />
    <rect x="1380" y="98" width="8" height="8" />
  </g>

  
  <g filter="url(#glowGreen)" opacity="0.5">
    <rect x="900" y="180" width="8" height="300" fill="#00ff44" transform="rotate(-20, 900, 180)" />
    <rect x="920" y="160" width="6" height="280" fill="#44ff88" transform="rotate(-18, 920, 160)" />
  </g>
  <g filter="url(#glowGreen)" opacity="0.35">
    <rect x="1100" y="200" width="6" height="260" fill="#00ff44" transform="rotate(15, 1100, 200)" />
  </g>

  
  
  <rect x="0" y="760" width="1536" height="264" fill="url(#groundGrad)" />
  
  <g fill="#1a0035">
    <rect x="300" y="740" width="936" height="24" />
    <rect x="250" y="748" width="1036" height="16" />
    <rect x="200" y="756" width="1136" height="8" />
  </g>

  
  <rect x="450" y="580" width="636" height="200" fill="#2a1045" />
  
  <g fill="#1e0835" opacity="0.6">
    <rect x="450" y="600" width="636" height="8" />
    <rect x="450" y="630" width="636" height="8" />
    <rect x="450" y="660" width="636" height="8" />
    <rect x="450" y="690" width="636" height="8" />
    <rect x="450" y="720" width="636" height="8" />
    <rect x="450" y="750" width="636" height="8" />
  </g>

  
  <rect x="700" y="380" width="136" height="250" fill="#2a1045" />
  
  <g fill="#3a1860">
    <rect x="700" y="356" width="32" height="32" />
    <rect x="748" y="356" width="32" height="32" />
    <rect x="796" y="356" width="32" height="32" />
    <rect x="700" y="380" width="136" height="8" fill="#2a1045" />
  </g>
  
  <g fill="#8b0000">
    <rect x="748" y="300" width="40" height="8" />
    <rect x="740" y="308" width="56" height="8" />
    <rect x="732" y="316" width="72" height="8" />
    <rect x="724" y="324" width="88" height="8" />
    <rect x="716" y="332" width="104" height="8" />
    <rect x="708" y="340" width="120" height="8" />
    <rect x="700" y="348" width="136" height="16" />
  </g>
  
  <rect x="748" y="420" width="40" height="56" fill="#ffdd44" filter="url(#glowGold)" opacity="0.9" />

  
  <rect x="530" y="460" width="100" height="170" fill="#241040" />
  <g fill="#341850">
    <rect x="530" y="440" width="24" height="24" />
    <rect x="566" y="440" width="24" height="24" />
    <rect x="602" y="440" width="24" height="24" />
  </g>
  <g fill="#6b0000">
    <rect x="566" y="380" width="28" height="8" />
    <rect x="558" y="388" width="44" height="8" />
    <rect x="550" y="396" width="60" height="8" />
    <rect x="542" y="404" width="76" height="8" />
    <rect x="534" y="412" width="92" height="8" />
    <rect x="530" y="420" width="100" height="24" />
  </g>
  <rect x="554" y="500" width="32" height="40" fill="#ffcc22" opacity="0.7" filter="url(#glowGold)" />

  
  <rect x="906" y="460" width="100" height="170" fill="#241040" />
  <g fill="#341850">
    <rect x="906" y="440" width="24" height="24" />
    <rect x="942" y="440" width="24" height="24" />
    <rect x="978" y="440" width="24" height="24" />
  </g>
  <g fill="#6b0000">
    <rect x="942" y="380" width="28" height="8" />
    <rect x="934" y="388" width="44" height="8" />
    <rect x="926" y="396" width="60" height="8" />
    <rect x="918" y="404" width="76" height="8" />
    <rect x="910" y="412" width="92" height="8" />
    <rect x="906" y="420" width="100" height="24" />
  </g>
  <rect x="950" y="500" width="32" height="40" fill="#ffcc22" opacity="0.7" filter="url(#glowGold)" />

  
  <rect x="400" y="560" width="68" height="140" fill="#1e0c38" />
  <g fill="#6b0000">
    <rect x="418" y="510" width="20" height="8" />
    <rect x="410" y="518" width="36" height="8" />
    <rect x="402" y="526" width="52" height="8" />
    <rect x="400" y="534" width="68" height="28" />
  </g>
  <rect x="416" y="600" width="24" height="30" fill="#ffcc22" opacity="0.5" filter="url(#glowGold)" />

  
  <rect x="1068" y="560" width="68" height="140" fill="#1e0c38" />
  <g fill="#6b0000">
    <rect x="1086" y="510" width="20" height="8" />
    <rect x="1078" y="518" width="36" height="8" />
    <rect x="1070" y="526" width="52" height="8" />
    <rect x="1068" y="534" width="68" height="28" />
  </g>
  <rect x="1096" y="600" width="24" height="30" fill="#ffcc22" opacity="0.5" filter="url(#glowGold)" />

  
  <rect x="718" y="660" width="100" height="120" fill="#0a0020" />
  
  <g fill="#2a1045">
    <rect x="718" y="636" width="100" height="24" />
    <rect x="726" y="620" width="84" height="16" />
    <rect x="742" y="608" width="52" height="16" />
    <rect x="750" y="596" width="36" height="16" />
  </g>
  
  <g fill="#5030a0" opacity="0.4">
    <rect x="742" y="608" width="8" height="16" />
    <rect x="784" y="608" width="8" height="16" />
  </g>

  
  <rect x="718" y="780" width="100" height="24" fill="#2a1045" />
  <rect x="700" y="792" width="136" height="12" fill="#1e0835" />

  
  
  <g filter="url(#glow)" opacity="0.95">
    
    <g fill="#c8a000">
      
      <rect x="152" y="700" width="8" height="8" />
      <rect x="160" y="672" width="8" height="8" />
      <rect x="168" y="648" width="8" height="8" />
      <rect x="176" y="620" width="8" height="8" />
      <rect x="184" y="596" width="8" height="8" />
      <rect x="192" y="568" width="8" height="8" />
      <rect x="200" y="544" width="8" height="8" />
      <rect x="208" y="516" width="8" height="8" />
      <rect x="216" y="492" width="8" height="8" />
      <rect x="224" y="464" width="8" height="8" />
      <rect x="232" y="440" width="8" height="8" />
      <rect x="240" y="412" width="8" height="8" />
      <rect x="248" y="384" width="8" height="8" />
      <rect x="256" y="360" width="8" height="8" />
      <rect x="264" y="332" width="8" height="8" />
      <rect x="272" y="308" width="8" height="8" />
      
      <rect x="376" y="700" width="8" height="8" />
      <rect x="368" y="672" width="8" height="8" />
      <rect x="360" y="648" width="8" height="8" />
      <rect x="352" y="620" width="8" height="8" />
      <rect x="344" y="596" width="8" height="8" />
      <rect x="336" y="568" width="8" height="8" />
      <rect x="328" y="544" width="8" height="8" />
      <rect x="320" y="516" width="8" height="8" />
      <rect x="312" y="492" width="8" height="8" />
      <rect x="304" y="464" width="8" height="8" />
      <rect x="296" y="440" width="8" height="8" />
      <rect x="288" y="412" width="8" height="8" />
      <rect x="280" y="384" width="8" height="8" />
      <rect x="272" y="360" width="8" height="8" />
      
      <rect x="264" y="308" width="24" height="24" />
      
      <rect x="152" y="700" width="240" height="8" />
    </g>
    
    <g fill="none" stroke="#c8a000" stroke-width="0">
      
    </g>
    <g fill="#c8a000">
      
      <rect x="244" y="524" width="48" height="8" />
      
      <rect x="244" y="628" width="48" height="8" />
      
      <rect x="212" y="548" width="8" height="32" />
      <rect x="220" y="540" width="8" height="8" />
      <rect x="220" y="580" width="8" height="8" />
      <rect x="220" y="612" width="8" height="8" />
      
      <rect x="316" y="548" width="8" height="32" />
      <rect x="308" y="540" width="8" height="8" />
      <rect x="308" y="612" width="8" height="8" />
      
      <rect x="228" y="532" width="8" height="8" />
      <rect x="228" y="620" width="8" height="8" />
      <rect x="300" y="532" width="8" height="8" />
      <rect x="300" y="620" width="8" height="8" />
    </g>
    
    <rect x="264" y="308" width="8" height="400" fill="#c8a000" />
  </g>

  
  <g filter="url(#glowGold)" opacity="0.9">
    <polygon points="       1240,280       1190,490       1230,490       1180,720       1290,470       1250,470       1310,280     " fill="#ffe066" />
    
    <g fill="#ffffff" opacity="0.4">
      <rect x="1244" y="280" width="48" height="16" />
      <rect x="1236" y="296" width="40" height="16" />
      <rect x="1228" y="312" width="32" height="16" />
      <rect x="1220" y="328" width="32" height="16" />
      <rect x="1212" y="344" width="32" height="16" />
      <rect x="1204" y="360" width="32" height="16" />
      <rect x="1196" y="376" width="32" height="16" />
      <rect x="1196" y="392" width="48" height="16" />
      <rect x="1196" y="408" width="48" height="16" />
      <rect x="1196" y="424" width="48" height="16" />
      <rect x="1228" y="440" width="48" height="16" />
      <rect x="1220" y="456" width="48" height="16" />
      <rect x="1212" y="472" width="48" height="16" />
      <rect x="1204" y="488" width="48" height="16" />
      <rect x="1196" y="504" width="48" height="16" />
      <rect x="1188" y="520" width="48" height="16" />
    </g>
  </g>

  
  
  <text x="770" y="178" font-family="monospace, Courier" font-size="68" font-weight="bold" fill="#000000" opacity="0.6" text-anchor="middle" letter-spacing="2" transform="translate(4,4)">HARRY POTTER</text>
  <text x="770" y="255" font-family="monospace, Courier" font-size="44" font-weight="bold" fill="#000000" opacity="0.6" text-anchor="middle" letter-spacing="3" transform="translate(4,4)">AND THE DEATHLY HALLOWS</text>
  <text x="770" y="315" font-family="monospace, Courier" font-size="60" font-weight="bold" fill="#000000" opacity="0.6" text-anchor="middle" letter-spacing="4" transform="translate(4,4)">PART 2</text>

  
  <text x="768" y="176" font-family="monospace, Courier" font-size="68" font-weight="bold" fill="url(#goldGrad)" text-anchor="middle" letter-spacing="2" filter="url(#glowGold)">HARRY POTTER</text>
  <text x="768" y="253" font-family="monospace, Courier" font-size="44" font-weight="bold" fill="#ddaaff" text-anchor="middle" letter-spacing="3">AND THE DEATHLY HALLOWS</text>
  <text x="768" y="313" font-family="monospace, Courier" font-size="60" font-weight="bold" fill="url(#goldGrad)" text-anchor="middle" letter-spacing="4" filter="url(#glowGold)">PART 2</text>

  
  <g fill="#c8a000" opacity="0.8">
    <rect x="120" y="328" width="480" height="8" />
    <rect x="936" y="328" width="480" height="8" />
    <rect x="120" y="120" width="480" height="8" />
    <rect x="936" y="120" width="480" height="8" />
  </g>

  
  
  
  <g transform="translate(530, 800)">
    
    <g fill="#cc8833"><rect x="0" y="0" width="24" height="24" /></g>
    <g fill="#000000"><rect x="0" y="0" width="24" height="8" /><rect x="0" y="8" width="8" height="8" /></g>
    <g fill="#cc8833"><rect x="12" y="8" width="4" height="8" fill="#ff6666" /></g>
    <g fill="#222266"><rect x="0" y="24" width="24" height="40" /></g>
    <g fill="#cc8833"><rect x="-8" y="32" width="8" height="8" /><rect x="24" y="32" width="8" height="8" /></g>
    
    <rect x="28" y="28" width="4" height="24" fill="#aa7733" />
    <rect x="28" y="24" width="8" height="8" fill="#00ff44" filter="url(#glowGreen)" opacity="0.9" />
  </g>

  
  <g transform="translate(940, 800)">
    <g fill="#e8e0d0"><rect x="0" y="0" width="24" height="24" /></g>
    <g fill="#000000"><rect x="0" y="0" width="24" height="6" /></g>
    <g fill="#cc0000"><rect x="4" y="10" width="6" height="6" /><rect x="14" y="10" width="6" height="6" /></g>
    <g fill="#1a0030"><rect x="0" y="24" width="24" height="40" /></g>
    <g fill="#e8e0d0"><rect x="-8" y="32" width="8" height="8" /><rect x="24" y="32" width="8" height="8" /></g>
    
    <rect x="-16" y="28" width="4" height="24" fill="#eeeeee" />
    <rect x="-20" y="24" width="8" height="8" fill="#ff4400" filter="url(#glowGreen)" opacity="0.9" />
  </g>

  
  <rect x="0" y="940" width="1536" height="84" fill="#0a0020" opacity="0.95" />
  <rect x="0" y="936" width="1536" height="8" fill="#c8a000" />

  
  <text x="80" y="994" font-family="monospace, Courier" font-size="28" fill="#ffe066" letter-spacing="2">BATTLE OF HOGWARTS</text>
  <text x="700" y="994" font-family="monospace, Courier" font-size="24" fill="#aa88ff" letter-spacing="1">2011 · 130 MIN · $1.342B WORLDWIDE</text>
  <text x="1430" y="994" font-family="monospace, Courier" font-size="24" fill="#00ff88" text-anchor="end" letter-spacing="1">8-BIT</text>

  
  <g fill="#ff2244">
    <rect x="1440" y="956" width="8" height="8" /><rect x="1448" y="948" width="8" height="8" />
    <rect x="1456" y="948" width="8" height="8" /><rect x="1448" y="956" width="16" height="8" />
    <rect x="1448" y="964" width="8" height="8" />

    <rect x="1476" y="956" width="8" height="8" /><rect x="1484" y="948" width="8" height="8" />
    <rect x="1492" y="948" width="8" height="8" /><rect x="1484" y="956" width="16" height="8" />
    <rect x="1484" y="964" width="8" height="8" />

    <rect x="1512" y="956" width="8" height="8" /><rect x="1520" y="948" width="8" height="8" />
    <rect x="1528" y="948" width="8" height="8" /><rect x="1520" y="956" width="16" height="8" />
    <rect x="1520" y="964" width="8" height="8" />
  </g>

  
  <rect width="1536" height="1024" fill="url(#scanlines)" />

  
  <rect width="1536" height="1024" fill="url(#vignette)" />

  
  <rect x="1000" y="0" width="536" height="400" fill="#004400" opacity="0.08" />
</svg>