<svg xmlns="http://www.w3.org/2000/svg" viewBox="0 0 1536 1024" role="img" width="1536" height="1024">
  <title>Instagram Founding &amp; iOS Launch — Retro Pixel Art Banner</title>
  <defs>
    <radialGradient id="crt" cx="50%" cy="50%" r="70%">
      <stop offset="0%" stop-color="#1a0a2e" />
      <stop offset="100%" stop-color="#000008" />
    </radialGradient>
    <radialGradient id="screen-glow" cx="50%" cy="50%" r="60%">
      <stop offset="0%" stop-color="#ff6ec7" stop-opacity="0.15" />
      <stop offset="100%" stop-color="#ff6ec7" stop-opacity="0" />
    </radialGradient>
    <filter id="glow">
      <feGaussianBlur stdDeviation="4" result="blur" />
      <feMerge><feMergeNode in="blur" /><feMergeNode in="SourceGraphic" /></feMerge>
    </filter>
  </defs>

  
  <rect width="1536" height="1024" fill="url(#crt)" />
  <rect width="1536" height="1024" fill="url(#screen-glow)" />

  
  <rect width="1536" height="1024" fill="none" stroke="#ffffff" stroke-opacity="0.02" stroke-width="2" />

  
  <rect x="0" y="0" width="1536" height="2" fill="#ffffff" fill-opacity="0.03" />
  <rect x="0" y="8" width="1536" height="2" fill="#ffffff" fill-opacity="0.03" />
  <rect x="0" y="16" width="1536" height="2" fill="#ffffff" fill-opacity="0.03" />
  <rect x="0" y="24" width="1536" height="2" fill="#ffffff" fill-opacity="0.03" />
  <rect x="0" y="32" width="1536" height="2" fill="#ffffff" fill-opacity="0.03" />
  <rect x="0" y="40" width="1536" height="2" fill="#ffffff" fill-opacity="0.03" />
  <rect x="0" y="48" width="1536" height="2" fill="#ffffff" fill-opacity="0.03" />
  <rect x="0" y="56" width="1536" height="2" fill="#ffffff" fill-opacity="0.03" />
  <rect x="0" y="64" width="1536" height="2" fill="#ffffff" fill-opacity="0.03" />
  <rect x="0" y="72" width="1536" height="2" fill="#ffffff" fill-opacity="0.03" />
  <rect x="0" y="80" width="1536" height="2" fill="#ffffff" fill-opacity="0.03" />
  <rect x="0" y="88" width="1536" height="2" fill="#ffffff" fill-opacity="0.03" />
  <rect x="0" y="96" width="1536" height="2" fill="#ffffff" fill-opacity="0.03" />
  <rect x="0" y="104" width="1536" height="2" fill="#ffffff" fill-opacity="0.03" />
  <rect x="0" y="112" width="1536" height="2" fill="#ffffff" fill-opacity="0.03" />
  <rect x="0" y="120" width="1536" height="2" fill="#ffffff" fill-opacity="0.03" />
  <rect x="0" y="128" width="1536" height="2" fill="#ffffff" fill-opacity="0.03" />
  <rect x="0" y="136" width="1536" height="2" fill="#ffffff" fill-opacity="0.03" />
  <rect x="0" y="144" width="1536" height="2" fill="#ffffff" fill-opacity="0.03" />
  <rect x="0" y="152" width="1536" height="2" fill="#ffffff" fill-opacity="0.03" />
  <rect x="0" y="160" width="1536" height="2" fill="#ffffff" fill-opacity="0.03" />
  <rect x="0" y="168" width="1536" height="2" fill="#ffffff" fill-opacity="0.03" />
  <rect x="0" y="176" width="1536" height="2" fill="#ffffff" fill-opacity="0.03" />
  <rect x="0" y="184" width="1536" height="2" fill="#ffffff" fill-opacity="0.03" />
  <rect x="0" y="192" width="1536" height="2" fill="#ffffff" fill-opacity="0.03" />
  <rect x="0" y="200" width="1536" height="2" fill="#ffffff" fill-opacity="0.03" />
  <rect x="0" y="208" width="1536" height="2" fill="#ffffff" fill-opacity="0.03" />
  <rect x="0" y="216" width="1536" height="2" fill="#ffffff" fill-opacity="0.03" />
  <rect x="0" y="224" width="1536" height="2" fill="#ffffff" fill-opacity="0.03" />
  <rect x="0" y="232" width="1536" height="2" fill="#ffffff" fill-opacity="0.03" />
  <rect x="0" y="240" width="1536" height="2" fill="#ffffff" fill-opacity="0.03" />
  <rect x="0" y="248" width="1536" height="2" fill="#ffffff" fill-opacity="0.03" />
  <rect x="0" y="256" width="1536" height="2" fill="#ffffff" fill-opacity="0.03" />
  <rect x="0" y="264" width="1536" height="2" fill="#ffffff" fill-opacity="0.03" />
  <rect x="0" y="272" width="1536" height="2" fill="#ffffff" fill-opacity="0.03" />
  <rect x="0" y="280" width="1536" height="2" fill="#ffffff" fill-opacity="0.03" />
  <rect x="0" y="288" width="1536" height="2" fill="#ffffff" fill-opacity="0.03" />
  <rect x="0" y="296" width="1536" height="2" fill="#ffffff" fill-opacity="0.03" />
  <rect x="0" y="304" width="1536" height="2" fill="#ffffff" fill-opacity="0.03" />
  <rect x="0" y="312" width="1536" height="2" fill="#ffffff" fill-opacity="0.03" />
  <rect x="0" y="320" width="1536" height="2" fill="#ffffff" fill-opacity="0.03" />
  <rect x="0" y="328" width="1536" height="2" fill="#ffffff" fill-opacity="0.03" />
  <rect x="0" y="336" width="1536" height="2" fill="#ffffff" fill-opacity="0.03" />
  <rect x="0" y="344" width="1536" height="2" fill="#ffffff" fill-opacity="0.03" />
  <rect x="0" y="352" width="1536" height="2" fill="#ffffff" fill-opacity="0.03" />
  <rect x="0" y="360" width="1536" height="2" fill="#ffffff" fill-opacity="0.03" />
  <rect x="0" y="368" width="1536" height="2" fill="#ffffff" fill-opacity="0.03" />
  <rect x="0" y="376" width="1536" height="2" fill="#ffffff" fill-opacity="0.03" />
  <rect x="0" y="384" width="1536" height="2" fill="#ffffff" fill-opacity="0.03" />
  <rect x="0" y="392" width="1536" height="2" fill="#ffffff" fill-opacity="0.03" />
  <rect x="0" y="400" width="1536" height="2" fill="#ffffff" fill-opacity="0.03" />
  <rect x="0" y="408" width="1536" height="2" fill="#ffffff" fill-opacity="0.03" />
  <rect x="0" y="416" width="1536" height="2" fill="#ffffff" fill-opacity="0.03" />
  <rect x="0" y="424" width="1536" height="2" fill="#ffffff" fill-opacity="0.03" />
  <rect x="0" y="432" width="1536" height="2" fill="#ffffff" fill-opacity="0.03" />
  <rect x="0" y="440" width="1536" height="2" fill="#ffffff" fill-opacity="0.03" />
  <rect x="0" y="448" width="1536" height="2" fill="#ffffff" fill-opacity="0.03" />
  <rect x="0" y="456" width="1536" height="2" fill="#ffffff" fill-opacity="0.03" />
  <rect x="0" y="464" width="1536" height="2" fill="#ffffff" fill-opacity="0.03" />
  <rect x="0" y="472" width="1536" height="2" fill="#ffffff" fill-opacity="0.03" />
  <rect x="0" y="480" width="1536" height="2" fill="#ffffff" fill-opacity="0.03" />
  <rect x="0" y="488" width="1536" height="2" fill="#ffffff" fill-opacity="0.03" />
  <rect x="0" y="496" width="1536" height="2" fill="#ffffff" fill-opacity="0.03" />
  <rect x="0" y="504" width="1536" height="2" fill="#ffffff" fill-opacity="0.03" />
  <rect x="0" y="512" width="1536" height="2" fill="#ffffff" fill-opacity="0.03" />
  <rect x="0" y="520" width="1536" height="2" fill="#ffffff" fill-opacity="0.03" />
  <rect x="0" y="528" width="1536" height="2" fill="#ffffff" fill-opacity="0.03" />
  <rect x="0" y="536" width="1536" height="2" fill="#ffffff" fill-opacity="0.03" />
  <rect x="0" y="544" width="1536" height="2" fill="#ffffff" fill-opacity="0.03" />
  <rect x="0" y="552" width="1536" height="2" fill="#ffffff" fill-opacity="0.03" />
  <rect x="0" y="560" width="1536" height="2" fill="#ffffff" fill-opacity="0.03" />
  <rect x="0" y="568" width="1536" height="2" fill="#ffffff" fill-opacity="0.03" />
  <rect x="0" y="576" width="1536" height="2" fill="#ffffff" fill-opacity="0.03" />
  <rect x="0" y="584" width="1536" height="2" fill="#ffffff" fill-opacity="0.03" />
  <rect x="0" y="592" width="1536" height="2" fill="#ffffff" fill-opacity="0.03" />
  <rect x="0" y="600" width="1536" height="2" fill="#ffffff" fill-opacity="0.03" />
  <rect x="0" y="608" width="1536" height="2" fill="#ffffff" fill-opacity="0.03" />
  <rect x="0" y="616" width="1536" height="2" fill="#ffffff" fill-opacity="0.03" />
  <rect x="0" y="624" width="1536" height="2" fill="#ffffff" fill-opacity="0.03" />
  <rect x="0" y="632" width="1536" height="2" fill="#ffffff" fill-opacity="0.03" />
  <rect x="0" y="640" width="1536" height="2" fill="#ffffff" fill-opacity="0.03" />
  <rect x="0" y="648" width="1536" height="2" fill="#ffffff" fill-opacity="0.03" />
  <rect x="0" y="656" width="1536" height="2" fill="#ffffff" fill-opacity="0.03" />
  <rect x="0" y="664" width="1536" height="2" fill="#ffffff" fill-opacity="0.03" />
  <rect x="0" y="672" width="1536" height="2" fill="#ffffff" fill-opacity="0.03" />
  <rect x="0" y="680" width="1536" height="2" fill="#ffffff" fill-opacity="0.03" />
  <rect x="0" y="688" width="1536" height="2" fill="#ffffff" fill-opacity="0.03" />
  <rect x="0" y="696" width="1536" height="2" fill="#ffffff" fill-opacity="0.03" />
  <rect x="0" y="704" width="1536" height="2" fill="#ffffff" fill-opacity="0.03" />
  <rect x="0" y="712" width="1536" height="2" fill="#ffffff" fill-opacity="0.03" />
  <rect x="0" y="720" width="1536" height="2" fill="#ffffff" fill-opacity="0.03" />
  <rect x="0" y="728" width="1536" height="2" fill="#ffffff" fill-opacity="0.03" />
  <rect x="0" y="736" width="1536" height="2" fill="#ffffff" fill-opacity="0.03" />
  <rect x="0" y="744" width="1536" height="2" fill="#ffffff" fill-opacity="0.03" />
  <rect x="0" y="752" width="1536" height="2" fill="#ffffff" fill-opacity="0.03" />
  <rect x="0" y="760" width="1536" height="2" fill="#ffffff" fill-opacity="0.03" />
  <rect x="0" y="768" width="1536" height="2" fill="#ffffff" fill-opacity="0.03" />
  <rect x="0" y="776" width="1536" height="2" fill="#ffffff" fill-opacity="0.03" />
  <rect x="0" y="784" width="1536" height="2" fill="#ffffff" fill-opacity="0.03" />
  <rect x="0" y="792" width="1536" height="2" fill="#ffffff" fill-opacity="0.03" />
  <rect x="0" y="800" width="1536" height="2" fill="#ffffff" fill-opacity="0.03" />
  <rect x="0" y="808" width="1536" height="2" fill="#ffffff" fill-opacity="0.03" />
  <rect x="0" y="816" width="1536" height="2" fill="#ffffff" fill-opacity="0.03" />
  <rect x="0" y="824" width="1536" height="2" fill="#ffffff" fill-opacity="0.03" />
  <rect x="0" y="832" width="1536" height="2" fill="#ffffff" fill-opacity="0.03" />
  <rect x="0" y="840" width="1536" height="2" fill="#ffffff" fill-opacity="0.03" />
  <rect x="0" y="848" width="1536" height="2" fill="#ffffff" fill-opacity="0.03" />
  <rect x="0" y="856" width="1536" height="2" fill="#ffffff" fill-opacity="0.03" />
  <rect x="0" y="864" width="1536" height="2" fill="#ffffff" fill-opacity="0.03" />
  <rect x="0" y="872" width="1536" height="2" fill="#ffffff" fill-opacity="0.03" />
  <rect x="0" y="880" width="1536" height="2" fill="#ffffff" fill-opacity="0.03" />
  <rect x="0" y="888" width="1536" height="2" fill="#ffffff" fill-opacity="0.03" />
  <rect x="0" y="896" width="1536" height="2" fill="#ffffff" fill-opacity="0.03" />
  <rect x="0" y="904" width="1536" height="2" fill="#ffffff" fill-opacity="0.03" />
  <rect x="0" y="912" width="1536" height="2" fill="#ffffff" fill-opacity="0.03" />
  <rect x="0" y="920" width="1536" height="2" fill="#ffffff" fill-opacity="0.03" />
  <rect x="0" y="928" width="1536" height="2" fill="#ffffff" fill-opacity="0.03" />
  <rect x="0" y="936" width="1536" height="2" fill="#ffffff" fill-opacity="0.03" />
  <rect x="0" y="944" width="1536" height="2" fill="#ffffff" fill-opacity="0.03" />
  <rect x="0" y="952" width="1536" height="2" fill="#ffffff" fill-opacity="0.03" />
  <rect x="0" y="960" width="1536" height="2" fill="#ffffff" fill-opacity="0.03" />
  <rect x="0" y="968" width="1536" height="2" fill="#ffffff" fill-opacity="0.03" />
  <rect x="0" y="976" width="1536" height="2" fill="#ffffff" fill-opacity="0.03" />
  <rect x="0" y="984" width="1536" height="2" fill="#ffffff" fill-opacity="0.03" />
  <rect x="0" y="992" width="1536" height="2" fill="#ffffff" fill-opacity="0.03" />
  <rect x="0" y="1000" width="1536" height="2" fill="#ffffff" fill-opacity="0.03" />
  <rect x="0" y="1008" width="1536" height="2" fill="#ffffff" fill-opacity="0.03" />
  <rect x="0" y="1016" width="1536" height="2" fill="#ffffff" fill-opacity="0.03" />

  
  <rect x="80" y="60" width="8" height="8" fill="#ffffff" fill-opacity="0.6" />
  <rect x="200" y="120" width="6" height="6" fill="#ff6ec7" fill-opacity="0.8" />
  <rect x="340" y="50" width="8" height="8" fill="#ffe066" fill-opacity="0.7" />
  <rect x="1100" y="80" width="8" height="8" fill="#ff6ec7" fill-opacity="0.6" />
  <rect x="1350" y="55" width="6" height="6" fill="#ffe066" fill-opacity="0.8" />
  <rect x="1440" y="130" width="8" height="8" fill="#ffffff" fill-opacity="0.5" />
  <rect x="120" y="920" width="8" height="8" fill="#ffe066" fill-opacity="0.6" />
  <rect x="1460" y="900" width="8" height="8" fill="#ff6ec7" fill-opacity="0.6" />
  <rect x="900" y="950" width="6" height="6" fill="#ffffff" fill-opacity="0.5" />
  <rect x="60" y="500" width="6" height="6" fill="#ff6ec7" fill-opacity="0.4" />
  <rect x="1490" y="500" width="6" height="6" fill="#ffe066" fill-opacity="0.4" />

  
  
  

  
  
  <rect x="370" y="180" width="260" height="460" rx="0" fill="#2a2a4a" />
  
  <rect x="382" y="220" width="236" height="360" fill="#0d0d1a" />
  
  <rect x="482" y="598" width="36" height="20" fill="#3a3a6a" />
  <rect x="488" y="602" width="24" height="12" fill="#5a5a9a" />
  
  <rect x="462" y="196" width="76" height="10" fill="#3a3a6a" />
  
  <rect x="558" y="195" width="12" height="12" fill="#5a5a9a" />

  
  <rect x="390" y="228" width="220" height="344" fill="#1a1a3a" />

  
  <rect x="390" y="228" width="220" height="32" fill="#e8e8e8" />
  <text x="500" y="248" text-anchor="middle" font-family="monospace" font-size="12" fill="#333" font-weight="bold">App Store</text>

  
  
  <rect x="430" y="278" width="140" height="140" fill="#833ab4" />
  <rect x="430" y="348" width="140" height="70" fill="#fd1d1d" />
  <rect x="430" y="390" width="140" height="28" fill="#fcb045" />

  
  
  <rect x="450" y="298" width="100" height="80" fill="none" stroke="#ffffff" stroke-width="8" />
  
  <rect x="476" y="318" width="48" height="40" fill="none" stroke="#ffffff" stroke-width="6" />
  <rect x="488" y="326" width="24" height="24" fill="#ffffff" fill-opacity="0.9" />
  
  <rect x="528" y="302" width="12" height="12" fill="#ffffff" />

  
  <rect x="452" y="432" width="96" height="28" fill="#0a84ff" />
  <text x="500" y="450" text-anchor="middle" font-family="monospace" font-size="13" fill="#ffffff" font-weight="bold">GET</text>

  
  <text x="500" y="478" text-anchor="middle" font-family="monospace" font-size="11" fill="#ccccff">Instagram</text>
  <text x="500" y="494" text-anchor="middle" font-family="monospace" font-size="9" fill="#8888aa">Photo &amp; Video</text>

  
  <rect x="453" y="504" width="8" height="8" fill="#ffe066" />
  <rect x="465" y="504" width="8" height="8" fill="#ffe066" />
  <rect x="477" y="504" width="8" height="8" fill="#ffe066" />
  <rect x="489" y="504" width="8" height="8" fill="#ffe066" />
  <rect x="501" y="504" width="8" height="8" fill="#ffe066" />
  <text x="520" y="512" font-family="monospace" font-size="8" fill="#8888aa">25K</text>

  
  <rect x="390" y="548" width="220" height="24" fill="#000000" />
  <text x="500" y="563" text-anchor="middle" font-family="monospace" font-size="10" fill="#aaaaff">iOS EXCLUSIVE · OCT 6, 2010</text>

  
  
  

  
  
  <rect x="820" y="160" width="320" height="320" fill="#833ab4" />
  <rect x="820" y="320" width="320" height="80" fill="#fd1d1d" />
  <rect x="820" y="400" width="320" height="80" fill="#fcb045" />

  
  <rect x="850" y="200" width="260" height="200" fill="none" stroke="#ffffff" stroke-width="16" />
  
  <rect x="850" y="184" width="60" height="32" fill="#ffffff" />
  <rect x="858" y="192" width="44" height="16" fill="#833ab4" />
  
  <rect x="910" y="230" width="140" height="140" fill="none" stroke="#ffffff" stroke-width="14" />
  
  <rect x="938" y="258" width="84" height="84" fill="none" stroke="#ffe066" stroke-width="10" />
  
  <rect x="958" y="278" width="44" height="44" fill="#ffffff" />
  
  <rect x="1072" y="208" width="28" height="28" fill="#ffe066" />

  
  <rect x="812" y="152" width="8" height="8" fill="#ff6ec7" />
  <rect x="1132" y="152" width="8" height="8" fill="#ff6ec7" />
  <rect x="812" y="480" width="8" height="8" fill="#ff6ec7" />
  <rect x="1132" y="480" width="8" height="8" fill="#ff6ec7" />

  
  
  
  <rect x="820" y="510" width="320" height="120" fill="#0a0a1e" stroke="#ff6ec7" stroke-width="4" />
  <text x="980" y="538" text-anchor="middle" font-family="monospace" font-size="14" fill="#ff6ec7" font-weight="bold">USERS: DAY 1</text>
  
  <rect x="840" y="550" width="280" height="24" fill="#1a1a3a" />
  <rect x="840" y="550" width="200" height="24" fill="#ffe066" />
  <rect x="840" y="550" width="8" height="24" fill="#ffff88" />
  
  <rect x="840" y="580" width="16" height="16" fill="#ff6ec7" />
  <rect x="860" y="580" width="16" height="16" fill="#ff6ec7" />
  <rect x="880" y="580" width="16" height="16" fill="#ff6ec7" />
  <rect x="900" y="580" width="16" height="16" fill="#ff6ec7" />
  <rect x="920" y="580" width="16" height="16" fill="#ff6ec7" />
  <text x="950" y="594" font-family="monospace" font-size="13" fill="#ffe066">25,000 USERS</text>

  
  
  

  
  <rect x="60" y="200" width="24" height="24" fill="#833ab4" fill-opacity="0.7" />
  <rect x="60" y="232" width="24" height="24" fill="#fd1d1d" fill-opacity="0.7" />
  <rect x="60" y="264" width="24" height="24" fill="#fcb045" fill-opacity="0.7" />
  <rect x="60" y="296" width="24" height="24" fill="#833ab4" fill-opacity="0.5" />
  <rect x="60" y="328" width="24" height="24" fill="#fd1d1d" fill-opacity="0.5" />
  <rect x="60" y="360" width="24" height="24" fill="#fcb045" fill-opacity="0.5" />

  
  <rect x="1452" y="200" width="24" height="24" fill="#fcb045" fill-opacity="0.7" />
  <rect x="1452" y="232" width="24" height="24" fill="#fd1d1d" fill-opacity="0.7" />
  <rect x="1452" y="264" width="24" height="24" fill="#833ab4" fill-opacity="0.7" />
  <rect x="1452" y="296" width="24" height="24" fill="#fcb045" fill-opacity="0.5" />
  <rect x="1452" y="328" width="24" height="24" fill="#fd1d1d" fill-opacity="0.5" />

  
  <rect x="100" y="660" width="1336" height="6" fill="#ff6ec7" fill-opacity="0.5" />
  <rect x="100" y="670" width="1336" height="2" fill="#ff6ec7" fill-opacity="0.3" />

  
  <rect x="100" y="690" width="12" height="12" fill="#ffe066" fill-opacity="0.5" />
  <rect x="120" y="690" width="12" height="12" fill="#ff6ec7" fill-opacity="0.5" />
  <rect x="140" y="690" width="12" height="12" fill="#833ab4" fill-opacity="0.5" />
  <rect x="160" y="690" width="12" height="12" fill="#fd1d1d" fill-opacity="0.5" />
  <rect x="180" y="690" width="12" height="12" fill="#fcb045" fill-opacity="0.5" />

  <rect x="1364" y="690" width="12" height="12" fill="#ffe066" fill-opacity="0.5" />
  <rect x="1384" y="690" width="12" height="12" fill="#ff6ec7" fill-opacity="0.5" />
  <rect x="1404" y="690" width="12" height="12" fill="#833ab4" fill-opacity="0.5" />
  <rect x="1424" y="690" width="12" height="12" fill="#fd1d1d" fill-opacity="0.5" />

  
  
  

  
  <rect x="80" y="720" width="1376" height="220" fill="#ff6ec7" fill-opacity="0.04" rx="0" />

  
  <text x="768" y="810" text-anchor="middle" font-family="'Courier New', Courier, monospace" font-size="110" font-weight="bold" letter-spacing="8" fill="#ffffff" filter="url(#glow)" paint-order="stroke" stroke="#ff6ec7" stroke-width="4">INSTAGRAM</text>

  
  <text x="768" y="876" text-anchor="middle" font-family="'Courier New', Courier, monospace" font-size="44" font-weight="bold" letter-spacing="6" fill="#ffe066" filter="url(#glow)">FOUNDING &amp; iOS LAUNCH</text>

  
  <rect x="618" y="898" width="300" height="38" fill="#833ab4" />
  <rect x="622" y="902" width="292" height="30" fill="#fd1d1d" />
  <text x="768" y="922" text-anchor="middle" font-family="'Courier New', Courier, monospace" font-size="16" font-weight="bold" letter-spacing="3" fill="#ffffff">OCTOBER 6, 2010</text>

  
  
  <rect x="40" y="40" width="48" height="8" fill="#ff6ec7" />
  <rect x="40" y="40" width="8" height="48" fill="#ff6ec7" />
  
  <rect x="1448" y="40" width="48" height="8" fill="#ff6ec7" />
  <rect x="1488" y="40" width="8" height="48" fill="#ff6ec7" />
  
  <rect x="40" y="976" width="48" height="8" fill="#ff6ec7" />
  <rect x="40" y="936" width="8" height="48" fill="#ff6ec7" />
  
  <rect x="1448" y="976" width="48" height="8" fill="#ff6ec7" />
  <rect x="1488" y="936" width="8" height="48" fill="#ff6ec7" />

  
  <rect x="0" y="0" width="1536" height="32" fill="#ff6ec7" fill-opacity="0.12" />
  <text x="768" y="21" text-anchor="middle" font-family="'Courier New', monospace" font-size="13" fill="#ff6ec7" letter-spacing="6" fill-opacity="0.9">▶ SCIENCE &amp; TECHNOLOGY ◀</text>

  
  <rect x="0" y="992" width="1536" height="32" fill="#ff6ec7" fill-opacity="0.10" />
  <text x="200" y="1012" font-family="'Courier New', monospace" font-size="11" fill="#ffe066" fill-opacity="0.7" letter-spacing="2">SYSTROM · KRIEGER · 2010</text>
  <text x="1100" y="1012" font-family="'Courier New', monospace" font-size="11" fill="#ff6ec7" fill-opacity="0.7" letter-spacing="2">1M USERS · NO PAID ADS</text>

</svg>