<svg xmlns="http://www.w3.org/2000/svg" viewBox="0 0 1536 1024" role="img" width="1536" height="1024">
  <title>LinkedIn IPO — The Professional Network Goes Public</title>
  <defs>
    <radialGradient id="crt" cx="50%" cy="50%" r="70%">
      <stop offset="0%" stop-color="#001a33" />
      <stop offset="100%" stop-color="#000a1a" />
    </radialGradient>
    <filter id="glow">
      <feGaussianBlur stdDeviation="4" result="blur" />
      <feMerge><feMergeNode in="blur" /><feMergeNode in="SourceGraphic" /></feMerge>
    </filter>
    <pattern id="scanlines" width="1" height="4" patternUnits="userSpaceOnUse">
      <rect width="1" height="2" fill="rgba(0,0,0,0.15)" />
    </pattern>
  </defs>

  
  <rect width="1536" height="1024" fill="url(#crt)" />

  
  
  <line x1="0" y1="600" x2="1536" y2="600" stroke="#0a3a5a" stroke-width="2" />
  <line x1="0" y1="650" x2="1536" y2="650" stroke="#0a3a5a" stroke-width="2" />
  <line x1="0" y1="700" x2="1536" y2="700" stroke="#0a3a5a" stroke-width="2" />
  <line x1="0" y1="750" x2="1536" y2="750" stroke="#0a3a5a" stroke-width="2" />
  <line x1="0" y1="800" x2="1536" y2="800" stroke="#0a3a5a" stroke-width="2" />
  <line x1="0" y1="850" x2="1536" y2="850" stroke="#0a3a5a" stroke-width="2" />
  <line x1="0" y1="900" x2="1536" y2="900" stroke="#0a3a5a" stroke-width="2" />
  <line x1="0" y1="950" x2="1536" y2="950" stroke="#0a3a5a" stroke-width="2" />
  <line x1="0" y1="1000" x2="1536" y2="1000" stroke="#0a3a5a" stroke-width="2" />

  
  <line x1="768" y1="590" x2="0" y2="1100" stroke="#0a3a5a" stroke-width="2" />
  <line x1="768" y1="590" x2="200" y2="1100" stroke="#0a3a5a" stroke-width="2" />
  <line x1="768" y1="590" x2="400" y2="1100" stroke="#0a3a5a" stroke-width="2" />
  <line x1="768" y1="590" x2="600" y2="1100" stroke="#0a3a5a" stroke-width="2" />
  <line x1="768" y1="590" x2="768" y2="1100" stroke="#0a3a5a" stroke-width="2" />
  <line x1="768" y1="590" x2="936" y2="1100" stroke="#0a3a5a" stroke-width="2" />
  <line x1="768" y1="590" x2="1136" y2="1100" stroke="#0a3a5a" stroke-width="2" />
  <line x1="768" y1="590" x2="1336" y2="1100" stroke="#0a3a5a" stroke-width="2" />
  <line x1="768" y1="590" x2="1536" y2="1100" stroke="#0a3a5a" stroke-width="2" />

  
  
  <rect x="160" y="350" width="320" height="240" fill="#1a4a7a" />
  
  <rect x="170" y="370" width="28" height="200" fill="#2266aa" />
  <rect x="210" y="370" width="28" height="200" fill="#2266aa" />
  <rect x="250" y="370" width="28" height="200" fill="#2266aa" />
  <rect x="290" y="370" width="28" height="200" fill="#2266aa" />
  <rect x="330" y="370" width="28" height="200" fill="#2266aa" />
  <rect x="370" y="370" width="28" height="200" fill="#2266aa" />
  <rect x="410" y="370" width="28" height="200" fill="#2266aa" />
  
  <polygon points="140,360 480,360 380,300 260,300" fill="#0d5fa8" />
  
  <rect x="260" y="280" width="120" height="24" fill="#1a6ab5" />
  
  <rect x="180" y="420" width="16" height="16" fill="#00eeff" />
  <rect x="210" y="420" width="16" height="16" fill="#00eeff" />
  <rect x="240" y="420" width="16" height="16" fill="#00eeff" />
  <rect x="270" y="420" width="16" height="16" fill="#00eeff" />
  <rect x="300" y="420" width="16" height="16" fill="#00eeff" />
  <rect x="330" y="420" width="16" height="16" fill="#00eeff" />
  <rect x="360" y="420" width="16" height="16" fill="#00eeff" />
  <rect x="390" y="420" width="16" height="16" fill="#00eeff" />
  <rect x="420" y="420" width="16" height="16" fill="#00eeff" />
  <rect x="180" y="460" width="16" height="16" fill="#00eeff" />
  <rect x="210" y="460" width="16" height="16" fill="#aaccff" />
  <rect x="240" y="460" width="16" height="16" fill="#00eeff" />
  <rect x="270" y="460" width="16" height="16" fill="#aaccff" />
  <rect x="300" y="460" width="16" height="16" fill="#00eeff" />
  <rect x="330" y="460" width="16" height="16" fill="#aaccff" />
  <rect x="360" y="460" width="16" height="16" fill="#00eeff" />
  <rect x="390" y="460" width="16" height="16" fill="#aaccff" />
  <rect x="420" y="460" width="16" height="16" fill="#00eeff" />
  
  <rect x="240" y="500" width="160" height="36" fill="#003366" />
  <text x="320" y="524" font-family="monospace" font-size="20" fill="#ffcc00" text-anchor="middle" font-weight="bold">NYSE</text>
  
  <rect x="290" y="540" width="60" height="50" fill="#001a33" />

  
  
  <rect x="640" y="120" width="256" height="256" fill="#0077b5" rx="0" />
  
  
  <rect x="680" y="160" width="32" height="32" fill="white" />
  <rect x="680" y="208" width="32" height="128" fill="white" />
  
  <rect x="736" y="208" width="32" height="128" fill="white" />
  <rect x="736" y="208" width="96" height="32" fill="white" />
  <rect x="800" y="208" width="32" height="128" fill="white" />
  
  <rect x="680" y="156" width="32" height="32" fill="white" />

  
  <rect x="0" y="570" width="1536" height="24" fill="#001133" />
  <rect x="0" y="570" width="1536" height="4" fill="#00ff88" />
  <rect x="0" y="590" width="1536" height="4" fill="#00ff88" />
  
  <text x="40" y="587" font-family="monospace" font-size="16" fill="#00ff88" font-weight="bold">LNKD ▲ +109%   $94.25   ▮   IPO: $45.00   ▮   RAISED: $352M   ▮   MEMBERS: 100M   ▮   NYSE: LNKD   ▮   MAY 19, 2011   ▮</text>

  
  
  <rect x="1020" y="200" width="460" height="340" fill="#001a2e" />
  <rect x="1020" y="200" width="460" height="4" fill="#00ff88" />
  <rect x="1020" y="536" width="460" height="4" fill="#00ff88" />
  <rect x="1020" y="200" width="4" height="340" fill="#00ff88" />
  <rect x="1476" y="200" width="4" height="340" fill="#00ff88" />

  
  <text x="1250" y="228" font-family="monospace" font-size="16" fill="#00ff88" text-anchor="middle">LNKD TRADING DAY 1</text>

  
  <rect x="1040" y="490" width="20" height="30" fill="#ff4444" />
  <rect x="1068" y="470" width="20" height="50" fill="#ff4444" />
  <rect x="1096" y="450" width="20" height="70" fill="#ff4444" />
  <rect x="1124" y="430" width="20" height="70" fill="#00ff88" />
  <rect x="1152" y="390" width="20" height="90" fill="#00ff88" />
  <rect x="1180" y="350" width="20" height="110" fill="#00ff88" />
  <rect x="1208" y="310" width="20" height="130" fill="#00ff88" />
  <rect x="1236" y="290" width="20" height="100" fill="#00ff88" />
  <rect x="1264" y="270" width="20" height="120" fill="#00ff88" />
  <rect x="1292" y="260" width="20" height="90" fill="#00ff88" />
  <rect x="1320" y="250" width="20" height="100" fill="#00ff88" />
  <rect x="1348" y="248" width="20" height="80" fill="#00ff88" />
  <rect x="1376" y="244" width="20" height="100" fill="#00ff88" />
  <rect x="1404" y="240" width="20" height="80" fill="#00ff88" />
  <rect x="1432" y="238" width="20" height="90" fill="#00ff88" />

  
  
  <polygon points="1460,240 1480,280 1468,280 1468,330 1452,330 1452,280 1440,280" fill="#ffcc00" />

  
  <text x="1460" y="350" font-family="monospace" font-size="14" fill="#ffcc00">$94</text>
  <text x="1036" y="525" font-family="monospace" font-size="14" fill="#ff8888">$45</text>

  
  <rect x="1060" y="240" width="140" height="48" fill="#ffcc00" />
  <rect x="1064" y="244" width="132" height="40" fill="#003300" />
  <text x="1130" y="270" font-family="monospace" font-size="20" fill="#00ff88" text-anchor="middle" font-weight="bold">+109%</text>

  
  
  <rect x="560" y="340" width="48" height="48" fill="#ffcc99" />
  
  <rect x="548" y="388" width="72" height="80" fill="#1a4a7a" />
  
  <rect x="578" y="392" width="12" height="60" fill="#cc0000" />
  
  <rect x="548" y="468" width="28" height="60" fill="#0d2244" />
  <rect x="592" y="468" width="28" height="60" fill="#0d2244" />
  
  <rect x="508" y="388" width="40" height="20" fill="#1a4a7a" />
  <rect x="620" y="388" width="40" height="20" fill="#1a4a7a" />
  
  <rect x="628" y="408" width="44" height="36" fill="#885500" />
  <rect x="638" y="400" width="24" height="12" fill="#885500" />
  <rect x="638" y="400" width="24" height="4" fill="#aa7722" />
  
  <rect x="568" y="356" width="8" height="8" fill="#333" />
  <rect x="588" y="356" width="8" height="8" fill="#333" />
  <rect x="568" y="372" width="28" height="6" fill="#cc6644" />

  
  <text x="120" y="160" font-family="monospace" font-size="32" fill="#ffcc00" filter="url(#glow)">★</text>
  <text x="1380" y="140" font-family="monospace" font-size="24" fill="#ffcc00" filter="url(#glow)">★</text>
  <text x="560" y="120" font-family="monospace" font-size="20" fill="#00eeff" filter="url(#glow)">✦</text>
  <text x="980" y="180" font-family="monospace" font-size="20" fill="#ffcc00" filter="url(#glow)">✦</text>

  
  <circle cx="100" cy="320" r="28" fill="#ffcc00" />
  <circle cx="100" cy="320" r="22" fill="#ddaa00" />
  <text x="100" y="328" font-family="monospace" font-size="20" fill="#333" text-anchor="middle" font-weight="bold">$</text>

  <circle cx="1460" cy="400" r="20" fill="#ffcc00" />
  <circle cx="1460" cy="400" r="15" fill="#ddaa00" />
  <text x="1460" y="407" font-family="monospace" font-size="14" fill="#333" text-anchor="middle" font-weight="bold">$</text>

  
  <circle cx="870" cy="150" r="10" fill="#0077b5" />
  <circle cx="920" cy="100" r="8" fill="#0077b5" />
  <circle cx="970" cy="140" r="8" fill="#0077b5" />
  <circle cx="930" cy="180" r="8" fill="#0077b5" />
  <line x1="870" y1="150" x2="920" y2="100" stroke="#00aaff" stroke-width="3" stroke-dasharray="4,4" />
  <line x1="920" y1="100" x2="970" y2="140" stroke="#00aaff" stroke-width="3" stroke-dasharray="4,4" />
  <line x1="970" y1="140" x2="930" y2="180" stroke="#00aaff" stroke-width="3" stroke-dasharray="4,4" />
  <line x1="930" y1="180" x2="870" y2="150" stroke="#00aaff" stroke-width="3" stroke-dasharray="4,4" />

  
  <rect x="60" y="660" width="920" height="160" fill="rgba(0,0,20,0.7)" />
  <rect x="60" y="660" width="920" height="6" fill="#0077b5" />
  <rect x="60" y="814" width="920" height="6" fill="#0077b5" />

  <text x="100" y="728" font-family="monospace" font-size="52" fill="#00eeff" font-weight="bold" filter="url(#glow)">LinkedIn IPO</text>
  <text x="100" y="794" font-family="monospace" font-size="32" fill="#ffffff">The Professional Network Goes Public</text>

  
  <rect x="100" y="840" width="340" height="40" fill="#0077b5" />
  <text x="120" y="866" font-family="monospace" font-size="22" fill="white" font-weight="bold">MAY 19, 2011</text>

  
  <rect x="480" y="840" width="180" height="40" fill="#ffcc00" />
  <text x="570" y="866" font-family="monospace" font-size="22" fill="#000" font-weight="bold" text-anchor="middle">NYSE: LNKD</text>

  
  <rect width="1536" height="1024" fill="url(#scanlines)" opacity="0.4" />

  
  <radialGradient id="vignette" cx="50%" cy="50%" r="75%">
    <stop offset="60%" stop-color="transparent" />
    <stop offset="100%" stop-color="rgba(0,0,0,0.6)" />
  </radialGradient>
  <rect width="1536" height="1024" fill="url(#vignette)" />
</svg>