<svg xmlns="http://www.w3.org/2000/svg" viewBox="0 0 1536 1024" role="img" width="1536" height="1024">
  <title>The Year 2011 — Knowledge Index: Retro pixel art banner depicting key events of 2011</title>

  <defs>
    <radialGradient id="crt" cx="50%" cy="50%" r="70%">
      <stop offset="0%" stop-color="#001a00" />
      <stop offset="100%" stop-color="#000800" />
    </radialGradient>
    <filter id="glow">
      <feGaussianBlur stdDeviation="3" result="blur" />
      <feMerge><feMergeNode in="blur" /><feMergeNode in="SourceGraphic" /></feMerge>
    </filter>
    
    <pattern id="scanlines" x="0" y="0" width="2" height="4" patternUnits="userSpaceOnUse">
      <rect x="0" y="0" width="2" height="2" fill="rgba(0,0,0,0.25)" />
    </pattern>
  </defs>

  
  <rect width="1536" height="1024" fill="url(#crt)" />
  
  <rect width="1536" height="1024" fill="url(#scanlines)" opacity="0.5" />

  
  <g fill="#003300" opacity="0.4">
    
    <rect x="0" y="0" width="4" height="4" rx="0" />
  </g>

  
  
  <rect x="16" y="16" width="1504" height="992" fill="none" stroke="#00ff41" stroke-width="8" />
  <rect x="28" y="28" width="1480" height="968" fill="none" stroke="#00aa2a" stroke-width="4" />
  
  <rect x="16" y="16" width="32" height="32" fill="#00ff41" />
  <rect x="1488" y="16" width="32" height="32" fill="#00ff41" />
  <rect x="16" y="976" width="32" height="32" fill="#00ff41" />
  <rect x="1488" y="976" width="32" height="32" fill="#00ff41" />

  
  <rect x="16" y="16" width="1504" height="56" fill="#00ff41" />
  <text x="768" y="55" font-family="monospace" font-size="28" font-weight="bold" fill="#001a00" text-anchor="middle" letter-spacing="8">* * * YEAR 2011 KNOWLEDGE INDEX * * *</text>

  
  <g filter="url(#glow)">
    
    <text x="772" y="198" font-family="monospace" font-size="96" font-weight="bold" fill="#005500" text-anchor="middle" letter-spacing="4">THE YEAR 2011</text>
    <text x="768" y="194" font-family="monospace" font-size="96" font-weight="bold" fill="#00ff41" text-anchor="middle" letter-spacing="4">THE YEAR 2011</text>
    <text x="772" y="278" font-family="monospace" font-size="52" font-weight="bold" fill="#005500" text-anchor="middle" letter-spacing="6">KNOWLEDGE INDEX</text>
    <text x="768" y="274" font-family="monospace" font-size="52" font-weight="bold" fill="#ffff00" text-anchor="middle" letter-spacing="6">KNOWLEDGE INDEX</text>
  </g>

  
  
  <rect x="60" y="870" width="1416" height="8" fill="#00ff41" />
  <rect x="60" y="878" width="1416" height="4" fill="#005500" />

  
  
  <rect x="60" y="310" width="280" height="24" fill="#ff6600" />
  <text x="200" y="328" font-family="monospace" font-size="16" font-weight="bold" fill="#000000" text-anchor="middle">ARAB SPRING</text>

  
  
  <rect x="140" y="360" width="32" height="32" fill="#ffcc88" />
  
  <rect x="144" y="392" width="24" height="48" fill="#cc4400" />
  
  <rect x="120" y="396" width="24" height="12" fill="#ffcc88" />
  <rect x="168" y="392" width="16" height="12" fill="#ffcc88" />
  
  <rect x="144" y="440" width="10" height="32" fill="#334455" />
  <rect x="158" y="440" width="10" height="32" fill="#334455" />
  
  <rect x="180" y="340" width="8" height="64" fill="#888888" />
  
  <rect x="188" y="340" width="56" height="36" fill="#ff0000" />
  <rect x="188" y="352" width="56" height="12" fill="#ffffff" />

  
  <rect x="220" y="368" width="28" height="28" fill="#ffaa66" />
  <rect x="222" y="396" width="22" height="44" fill="#0055cc" />
  <rect x="200" y="400" width="22" height="10" fill="#ffaa66" />
  <rect x="244" y="400" width="14" height="10" fill="#ffaa66" />
  <rect x="222" y="440" width="9" height="32" fill="#223344" />
  <rect x="234" y="440" width="9" height="32" fill="#223344" />

  
  <g fill="#ff6600">
    <rect x="80" y="820" width="16" height="16" />
    <rect x="96" y="808" width="16" height="16" />
    <rect x="112" y="796" width="16" height="16" />
    <rect x="96" y="796" width="16" height="16" />
    <rect x="80" y="804" width="16" height="16" />
    <rect x="128" y="808" width="16" height="16" />
  </g>
  <g fill="#ffaa00">
    <rect x="88" y="816" width="12" height="12" />
    <rect x="100" y="804" width="12" height="12" />
    <rect x="112" y="808" width="12" height="12" />
    <rect x="96" y="800" width="12" height="12" />
  </g>
  <g fill="#ffff44">
    <rect x="96" y="812" width="8" height="8" />
    <rect x="104" y="804" width="8" height="8" />
  </g>
  
  <rect x="60" y="700" width="300" height="170" fill="#111133" />
  <rect x="60" y="694" width="300" height="12" fill="#223355" />
  
  <g fill="#ffff00" opacity="0.8">
    <rect x="80" y="716" width="20" height="20" />
    <rect x="112" y="716" width="20" height="20" />
    <rect x="144" y="716" width="20" height="20" />
    <rect x="176" y="716" width="20" height="20" />
    <rect x="208" y="716" width="20" height="20" />
    <rect x="240" y="716" width="20" height="20" />
    <rect x="272" y="716" width="20" height="20" />
    <rect x="80" y="752" width="20" height="20" />
    <rect x="144" y="752" width="20" height="20" />
    <rect x="208" y="752" width="20" height="20" />
    <rect x="272" y="752" width="20" height="20" />
    <rect x="80" y="788" width="20" height="20" />
    <rect x="112" y="788" width="20" height="20" />
    <rect x="176" y="788" width="20" height="20" />
    <rect x="240" y="788" width="20" height="20" />
  </g>

  
  <rect x="380" y="310" width="300" height="24" fill="#ff0066" />
  <text x="530" y="328" font-family="monospace" font-size="16" font-weight="bold" fill="#ffffff" text-anchor="middle">FUKUSHIMA</text>

  
  
  <g fill="#aabbcc">
    <rect x="400" y="580" width="80" height="12" />
    <rect x="408" y="568" width="64" height="12" />
    <rect x="416" y="556" width="48" height="12" />
    <rect x="420" y="544" width="40" height="12" />
    <rect x="424" y="532" width="32" height="12" />
    <rect x="420" y="520" width="40" height="12" />
    <rect x="416" y="508" width="48" height="12" />
    <rect x="412" y="496" width="56" height="12" />
    <rect x="408" y="484" width="64" height="12" />
    <rect x="404" y="472" width="72" height="12" />
    <rect x="400" y="460" width="80" height="12" />
    <rect x="400" y="448" width="80" height="12" />
    <rect x="404" y="436" width="72" height="12" />
    <rect x="408" y="424" width="64" height="12" />
    <rect x="412" y="412" width="56" height="12" />
    <rect x="416" y="400" width="48" height="12" />
    <rect x="420" y="388" width="40" height="12" />
    <rect x="424" y="376" width="32" height="12" />
    <rect x="428" y="364" width="24" height="12" />
  </g>
  
  <rect x="396" y="592" width="88" height="280" fill="#778899" />
  
  <rect x="424" y="640" width="32" height="32" fill="#ffff00" rx="16" />
  
  <rect x="436" y="648" width="8" height="8" fill="#000000" />
  <rect x="430" y="660" width="8" height="8" fill="#000000" />
  <rect x="442" y="660" width="8" height="8" fill="#000000" />

  
  <g fill="#ccddee" opacity="0.7">
    <rect x="428" y="340" width="24" height="16" />
    <rect x="420" y="328" width="32" height="16" />
    <rect x="416" y="316" width="40" height="16" />
    <rect x="420" y="304" width="48" height="16" />
    <rect x="416" y="292" width="56" height="16" />
  </g>

  
  <g fill="#8899aa">
    <rect x="510" y="600" width="64" height="10" />
    <rect x="516" y="590" width="52" height="10" />
    <rect x="522" y="580" width="40" height="10" />
    <rect x="526" y="570" width="32" height="10" />
    <rect x="530" y="560" width="24" height="10" />
    <rect x="526" y="550" width="32" height="10" />
    <rect x="522" y="540" width="40" height="10" />
    <rect x="518" y="530" width="48" height="10" />
    <rect x="514" y="520" width="56" height="10" />
    <rect x="510" y="510" width="64" height="10" />
    <rect x="510" y="500" width="64" height="10" />
    <rect x="514" y="490" width="56" height="10" />
    <rect x="518" y="480" width="48" height="10" />
    <rect x="522" y="470" width="40" height="10" />
    <rect x="526" y="460" width="32" height="10" />
    <rect x="530" y="450" width="24" height="10" />
    <rect x="532" y="440" width="20" height="10" />
  </g>
  <rect x="506" y="610" width="72" height="260" fill="#667788" />

  
  <g fill="#0066ff">
    <rect x="380" y="790" width="300" height="80" />
    <rect x="380" y="770" width="20" height="20" />
    <rect x="400" y="758" width="20" height="20" />
    <rect x="420" y="746" width="20" height="20" />
    <rect x="440" y="758" width="20" height="20" />
    <rect x="460" y="766" width="20" height="20" />
    <rect x="480" y="754" width="20" height="20" />
    <rect x="500" y="742" width="20" height="20" />
    <rect x="520" y="730" width="20" height="20" />
    <rect x="540" y="742" width="20" height="20" />
    <rect x="560" y="750" width="20" height="20" />
    <rect x="580" y="762" width="20" height="20" />
    <rect x="600" y="770" width="20" height="20" />
    <rect x="620" y="758" width="20" height="20" />
    <rect x="640" y="746" width="20" height="20" />
    <rect x="660" y="762" width="20" height="20" />
  </g>
  <g fill="#4499ff">
    <rect x="380" y="758" width="16" height="16" />
    <rect x="420" y="742" width="16" height="16" />
    <rect x="500" y="738" width="16" height="16" />
    <rect x="540" y="726" width="16" height="16" />
    <rect x="580" y="754" width="16" height="16" />
    <rect x="620" y="742" width="16" height="16" />
    <rect x="660" y="750" width="16" height="16" />
  </g>
  <g fill="#aaddff">
    <rect x="524" y="726" width="12" height="12" />
    <rect x="504" y="734" width="12" height="12" />
    <rect x="544" y="722" width="12" height="12" />
  </g>

  
  <rect x="780" y="310" width="340" height="24" fill="#ff9900" />
  <text x="950" y="328" font-family="monospace" font-size="16" font-weight="bold" fill="#000000" text-anchor="middle">OCCUPY WALL STREET</text>

  
  
  <g fill="#ff6600">
    <rect x="800" y="760" width="120" height="8" />
    <rect x="808" y="752" width="104" height="8" />
    <rect x="816" y="744" width="88" height="8" />
    <rect x="824" y="736" width="72" height="8" />
    <rect x="832" y="728" width="56" height="8" />
    <rect x="840" y="720" width="40" height="8" />
    <rect x="848" y="712" width="24" height="8" />
    <rect x="856" y="704" width="8" height="8" />
  </g>
  <rect x="800" y="768" width="120" height="104" fill="#cc4400" />
  
  <rect x="848" y="808" width="24" height="64" fill="#000000" />

  
  <g fill="#0066cc">
    <rect x="960" y="768" width="112" height="8" />
    <rect x="968" y="760" width="96" height="8" />
    <rect x="976" y="752" width="80" height="8" />
    <rect x="984" y="744" width="64" height="8" />
    <rect x="992" y="736" width="48" height="8" />
    <rect x="1000" y="728" width="32" height="8" />
    <rect x="1008" y="720" width="16" height="8" />
    <rect x="1012" y="712" width="8" height="8" />
  </g>
  <rect x="960" y="776" width="112" height="96" fill="#004499" />
  <rect x="1004" y="816" width="24" height="56" fill="#000000" />

  
  <rect x="820" y="620" width="260" height="64" fill="#ffffff" />
  <rect x="820" y="620" width="260" height="64" fill="none" stroke="#000000" stroke-width="4" />
  <text x="950" y="655" font-family="monospace" font-size="22" font-weight="bold" fill="#cc0000" text-anchor="middle">WE ARE THE 99%</text>
  
  <rect x="944" y="684" width="12" height="88" fill="#888888" />

  
  <g fill="#ffcc88">
    <rect x="798" y="820" width="20" height="20" />
    <rect x="830" y="824" width="20" height="20" />
    <rect x="900" y="818" width="20" height="20" />
    <rect x="932" y="822" width="20" height="20" />
    <rect x="1080" y="820" width="20" height="20" />
    <rect x="1112" y="816" width="20" height="20" />
  </g>

  
  <rect x="1160" y="310" width="320" height="24" fill="#cc0000" />
  <text x="1320" y="328" font-family="monospace" font-size="16" font-weight="bold" fill="#ffffff" text-anchor="middle">MAY 2, 2011</text>

  
  <g fill="none" stroke="#ff0000" stroke-width="8">
    <rect x="1220" y="380" width="200" height="200" rx="100" />
  </g>
  
  <rect x="1316" y="360" width="8" height="60" fill="#ff0000" />
  <rect x="1316" y="560" width="8" height="60" fill="#ff0000" />
  <rect x="1200" y="476" width="60" height="8" fill="#ff0000" />
  <rect x="1380" y="476" width="60" height="8" fill="#ff0000" />
  
  <g fill="none" stroke="#ff6600" stroke-width="6">
    <rect x="1260" y="420" width="120" height="120" rx="60" />
  </g>
  
  <rect x="1312" y="472" width="16" height="16" fill="#ff0000" />

  
  <g fill="#333333">
    
    <rect x="1200" y="630" width="160" height="48" />
    
    <rect x="1344" y="622" width="48" height="56" fill="#445566" />
    
    <rect x="1160" y="638" width="48" height="24" />
    
    <rect x="1152" y="620" width="8" height="64" fill="#555555" />
    
    <rect x="1200" y="678" width="160" height="8" fill="#666666" />
    <rect x="1208" y="686" width="8" height="16" fill="#666666" />
    <rect x="1344" y="686" width="8" height="16" fill="#666666" />
    <rect x="1192" y="702" width="176" height="8" fill="#666666" />
  </g>
  
  <rect x="1160" y="618" width="240" height="8" fill="#444444" />
  <rect x="1276" y="578" width="8" height="48" fill="#555555" />

  
  <g fill="#ffffff">
    <rect x="1170" y="590" width="4" height="4" />
    <rect x="1400" y="580" width="4" height="4" />
    <rect x="1460" y="600" width="4" height="4" />
    <rect x="1140" y="560" width="4" height="4" />
    <rect x="1190" y="540" width="4" height="4" />
    <rect x="1420" y="545" width="4" height="4" />
    <rect x="1480" y="560" width="4" height="4" />
  </g>

  
  <rect x="1160" y="730" width="340" height="140" fill="#112211" />
  <rect x="1160" y="722" width="340" height="12" fill="#223322" />
  
  <g fill="#ffff00" opacity="0.6">
    <rect x="1180" y="742" width="16" height="16" />
    <rect x="1208" y="742" width="16" height="16" />
    <rect x="1236" y="742" width="16" height="16" />
    <rect x="1320" y="742" width="16" height="16" />
    <rect x="1380" y="742" width="16" height="16" />
    <rect x="1440" y="742" width="16" height="16" />
    <rect x="1200" y="776" width="16" height="16" />
    <rect x="1360" y="776" width="16" height="16" />
    <rect x="1440" y="776" width="16" height="16" />
  </g>

  
  <rect x="360" y="310" width="8" height="580" fill="#00ff41" opacity="0.5" />
  <rect x="700" y="310" width="8" height="580" fill="#00ff41" opacity="0.5" />
  <rect x="1140" y="310" width="8" height="580" fill="#00ff41" opacity="0.5" />

  
  
  <g fill="#00ff41" opacity="0.6">
    <rect x="100" y="500" width="6" height="6" />
    <rect x="700" y="400" width="6" height="6" />
    <rect x="1100" y="500" width="6" height="6" />
    <rect x="350" y="450" width="4" height="4" />
    <rect x="730" y="450" width="4" height="4" />
    <rect x="1130" y="450" width="4" height="4" />
  </g>

  
  <rect x="16" y="910" width="1504" height="88" fill="#000000" opacity="0.8" />
  <rect x="16" y="910" width="1504" height="8" fill="#00ff41" />

  
  <text x="200" y="958" font-family="monospace" font-size="20" fill="#ff6600" text-anchor="middle" filter="url(#glow)">[ ARAB SPRING ]</text>
  <text x="530" y="958" font-family="monospace" font-size="20" fill="#ff0066" text-anchor="middle" filter="url(#glow)">[ FUKUSHIMA ]</text>
  <text x="950" y="958" font-family="monospace" font-size="20" fill="#ffff00" text-anchor="middle" filter="url(#glow)">[ OCCUPY WALL ST ]</text>
  <text x="1320" y="958" font-family="monospace" font-size="20" fill="#ff4444" text-anchor="middle" filter="url(#glow)">[ BIN LADEN ]</text>

  
  <text x="1480" y="990" font-family="monospace" font-size="18" fill="#00ff41" text-anchor="end" opacity="0.7">GEN 1 ■ POS 7/7</text>
  <text x="80" y="990" font-family="monospace" font-size="18" fill="#00ff41" text-anchor="start" opacity="0.7">© 2011 KNOWLEDGE BASE</text>

  
  <rect width="1536" height="1024" fill="url(#scanlines)" opacity="0.3" />

  
  <radialGradient id="vignette" cx="50%" cy="50%" r="70%">
    <stop offset="60%" stop-color="transparent" />
    <stop offset="100%" stop-color="rgba(0,0,0,0.7)" />
  </radialGradient>
  <rect width="1536" height="1024" fill="url(#vignette)" />
</svg>